<svg height="496pt" viewBox="0 0 496 496" width="496pt" xmlns="http://www.w3.org/2000/svg"><g fill="#754c29"><path d="m264 400c0-48.601562-42.980469-88-96-88s-96 39.398438-96 88 42.980469 88 96 88 96-39.398438 96-88zm0 0"/><path d="m152 268c0 15.464844-12.535156 28-28 28s-28-12.535156-28-28 12.535156-28 28-28 28 12.535156 28 28zm0 0"/><path d="m64 332c0 15.464844-12.535156 28-28 28s-28-12.535156-28-28 12.535156-28 28-28 28 12.535156 28 28zm0 0"/><path d="m248 268c0 15.464844-12.535156 28-28 28s-28-12.535156-28-28 12.535156-28 28-28 28 12.535156 28 28zm0 0"/><path d="m328 332c0 15.464844-12.535156 28-28 28s-28-12.535156-28-28 12.535156-28 28-28 28 12.535156 28 28zm0 0"/><path d="m424 168c0-48.601562-42.980469-88-96-88s-96 39.398438-96 88 42.980469 88 96 88 96-39.398438 96-88zm0 0"/><path d="m312 36c0 15.464844-12.535156 28-28 28s-28-12.535156-28-28 12.535156-28 28-28 28 12.535156 28 28zm0 0"/><path d="m224 100c0 15.464844-12.535156 28-28 28s-28-12.535156-28-28 12.535156-28 28-28 28 12.535156 28 28zm0 0"/><path d="m408 36c0 15.464844-12.535156 28-28 28s-28-12.535156-28-28 12.535156-28 28-28 28 12.535156 28 28zm0 0"/><path d="m488 100c0 15.464844-12.535156 28-28 28s-28-12.535156-28-28 12.535156-28 28-28 28 12.535156 28 28zm0 0"/></g><path d="m168 304c-57.34375 0-104 43.0625-104 96s46.65625 96 104 96 104-43.0625 104-96-46.65625-96-104-96zm0 176c-48.519531 0-88-35.886719-88-80s39.480469-80 88-80 88 35.886719 88 80-39.480469 80-88 80zm0 0" fill="#231f20"/><path d="m124 304c19.882812 0 36-16.117188 36-36s-16.117188-36-36-36-36 16.117188-36 36c.023438 19.875 16.125 35.976562 36 36zm0-56c11.046875 0 20 8.953125 20 20s-8.953125 20-20 20-20-8.953125-20-20 8.953125-20 20-20zm0 0" fill="#231f20"/><path d="m36 296c-19.882812 0-36 16.117188-36 36s16.117188 36 36 36 36-16.117188 36-36c-.023438-19.875-16.125-35.976562-36-36zm0 56c-11.046875 0-20-8.953125-20-20s8.953125-20 20-20 20 8.953125 20 20-8.953125 20-20 20zm0 0" fill="#231f20"/><path d="m184 268c0 19.882812 16.117188 36 36 36s36-16.117188 36-36-16.117188-36-36-36c-19.875.023438-35.976562 16.125-36 36zm36-20c11.046875 0 20 8.953125 20 20s-8.953125 20-20 20-20-8.953125-20-20 8.953125-20 20-20zm0 0" fill="#231f20"/><path d="m300 296c-19.882812 0-36 16.117188-36 36s16.117188 36 36 36 36-16.117188 36-36c-.023438-19.875-16.125-35.976562-36-36zm0 56c-11.046875 0-20-8.953125-20-20s8.953125-20 20-20 20 8.953125 20 20-8.953125 20-20 20zm0 0" fill="#231f20"/><path d="m328 72c-57.34375 0-104 43.0625-104 96s46.65625 96 104 96 104-43.0625 104-96-46.65625-96-104-96zm0 176c-48.519531 0-88-35.886719-88-80s39.480469-80 88-80 88 35.886719 88 80-39.480469 80-88 80zm0 0" fill="#231f20"/><path d="m284 72c19.882812 0 36-16.117188 36-36s-16.117188-36-36-36-36 16.117188-36 36c.023438 19.875 16.125 35.976562 36 36zm0-56c11.046875 0 20 8.953125 20 20s-8.953125 20-20 20-20-8.953125-20-20 8.953125-20 20-20zm0 0" fill="#231f20"/><path d="m196 136c19.882812 0 36-16.117188 36-36s-16.117188-36-36-36-36 16.117188-36 36c.023438 19.875 16.125 35.976562 36 36zm0-56c11.046875 0 20 8.953125 20 20s-8.953125 20-20 20-20-8.953125-20-20 8.953125-20 20-20zm0 0" fill="#231f20"/><path d="m380 72c19.882812 0 36-16.117188 36-36s-16.117188-36-36-36-36 16.117188-36 36c.023438 19.875 16.125 35.976562 36 36zm0-56c11.046875 0 20 8.953125 20 20s-8.953125 20-20 20-20-8.953125-20-20 8.953125-20 20-20zm0 0" fill="#231f20"/><path d="m460 64c-19.882812 0-36 16.117188-36 36s16.117188 36 36 36 36-16.117188 36-36c-.023438-19.875-16.125-35.976562-36-36zm0 56c-11.046875 0-20-8.953125-20-20s8.953125-20 20-20 20 8.953125 20 20-8.953125 20-20 20zm0 0" fill="#231f20"/></svg>