<svg height="496pt" viewBox="0 0 496 496" width="496pt" xmlns="http://www.w3.org/2000/svg"><path d="m360 392-112 96-112-96v-384h224zm0 0" fill="#91cc04"/><path d="m8 24h128v24h-128zm0 0" fill="#603913"/><path d="m360 24h128v24h-128zm0 0" fill="#603913"/><path d="m288 272c0 22.089844-17.910156 40-40 40s-40-17.910156-40-40 17.910156-40 40-40 40 17.910156 40 40zm0 0" fill="#754c29"/><path d="m232 200c0 8.835938-7.164062 16-16 16s-16-7.164062-16-16 7.164062-16 16-16 16 7.164062 16 16zm0 0" fill="#754c29"/><path d="m192 240c0 8.835938-7.164062 16-16 16s-16-7.164062-16-16 7.164062-16 16-16 16 7.164062 16 16zm0 0" fill="#754c29"/><path d="m296 200c0 8.835938-7.164062 16-16 16s-16-7.164062-16-16 7.164062-16 16-16 16 7.164062 16 16zm0 0" fill="#754c29"/><path d="m336 240c0 8.835938-7.164062 16-16 16s-16-7.164062-16-16 7.164062-16 16-16 16 7.164062 16 16zm0 0" fill="#754c29"/><g fill="#231f20"><path d="m488 16h-120v-8c0-4.417969-3.582031-8-8-8h-224c-4.417969 0-8 3.582031-8 8v8h-120c-4.417969 0-8 3.582031-8 8v24c0 4.417969 3.582031 8 8 8h120v336c0 2.335938 1.019531 4.550781 2.792969 6.070312l112 96c2.992187 2.5625 7.40625 2.5625 10.398437 0l112-96c1.777344-1.515624 2.804688-3.734374 2.808594-6.070312v-336h120c4.417969 0 8-3.582031 8-8v-24c0-4.417969-3.582031-8-8-8zm-472 24v-8h112v8zm336 348.320312-104 89.144532-104-89.144532v-372.320312h208zm128-348.320312h-112v-8h112zm0 0"/><path d="m248 224c-26.507812 0-48 21.492188-48 48s21.492188 48 48 48 48-21.492188 48-48c-.027344-26.5-21.5-47.972656-48-48zm0 80c-17.671875 0-32-14.328125-32-32s14.328125-32 32-32 32 14.328125 32 32-14.328125 32-32 32zm0 0"/><path d="m216 176c-13.253906 0-24 10.746094-24 24s10.746094 24 24 24 24-10.746094 24-24-10.746094-24-24-24zm0 32c-4.417969 0-8-3.582031-8-8s3.582031-8 8-8 8 3.582031 8 8-3.582031 8-8 8zm0 0"/><path d="m176 216c-13.253906 0-24 10.746094-24 24s10.746094 24 24 24 24-10.746094 24-24-10.746094-24-24-24zm0 32c-4.417969 0-8-3.582031-8-8s3.582031-8 8-8 8 3.582031 8 8-3.582031 8-8 8zm0 0"/><path d="m280 224c13.253906 0 24-10.746094 24-24s-10.746094-24-24-24-24 10.746094-24 24 10.746094 24 24 24zm0-32c4.417969 0 8 3.582031 8 8s-3.582031 8-8 8-8-3.582031-8-8 3.582031-8 8-8zm0 0"/><path d="m320 216c-13.253906 0-24 10.746094-24 24s10.746094 24 24 24 24-10.746094 24-24-10.746094-24-24-24zm0 32c-4.417969 0-8-3.582031-8-8s3.582031-8 8-8 8 3.582031 8 8-3.582031 8-8 8zm0 0"/><path d="m160 56h56c4.417969 0 8-3.582031 8-8s-3.582031-8-8-8h-56c-4.417969 0-8 3.582031-8 8s3.582031 8 8 8zm0 0"/><path d="m240 56h8c4.417969 0 8-3.582031 8-8s-3.582031-8-8-8h-8c-4.417969 0-8 3.582031-8 8s3.582031 8 8 8zm0 0"/></g></svg>