<svg height="496pt" viewBox="0 -24 496 496" width="496pt" xmlns="http://www.w3.org/2000/svg"><path d="m24 336h448v40h-448zm0 0" fill="#a7a9ac"/><path d="m64 376h56v40c0 8.835938-7.164062 16-16 16h-24c-8.835938 0-16-7.164062-16-16zm0 0" fill="#414042"/><path d="m376 376h56v40c0 8.835938-7.164062 16-16 16h-24c-8.835938 0-16-7.164062-16-16zm0 0" fill="#414042"/><path d="m152 192h192c53.019531 0 96 42.980469 96 96v48h-384v-48c0-53.019531 42.980469-96 96-96zm0 0" fill="#4e901e"/><path d="m160 264c0 17.671875-14.328125 32-32 32s-32-14.328125-32-32 14.328125-32 32-32 32 14.328125 32 32zm0 0" fill="#cca400"/><path d="m400 264c0 17.671875-14.328125 32-32 32s-32-14.328125-32-32 14.328125-32 32-32 32 14.328125 32 32zm0 0" fill="#cca400"/><path d="m304 312h-112l8-72h96zm0 0" fill="#ab2300"/><path d="m368 192h-240l15.015625-105.128906c.5625-3.941406 3.9375-6.871094 7.921875-6.871094h194.125c3.984375 0 7.359375 2.929688 7.921875 6.871094zm0 0" fill="#7ed63e"/><path d="m155.671875 168 9.144531-64h166.367188l9.144531 64zm0 0" fill="#1a6fb0"/><path d="m56 136h32c8.835938 0 16 7.164062 16 16v8c0 8.835938-7.164062 16-16 16h-32zm0 0" fill="#d80027"/><path d="m440 176h-32c-8.835938 0-16-7.164062-16-16v-8c0-8.835938 7.164062-16 16-16h32zm0 0" fill="#d80027"/><path d="m120 24h256v32h-256zm0 0" fill="#754c29"/><g fill="#231f20"><path d="m128 224c-22.089844 0-40 17.910156-40 40s17.910156 40 40 40 40-17.910156 40-40c-.027344-22.082031-17.917969-39.972656-40-40zm0 64c-13.253906 0-24-10.746094-24-24s10.746094-24 24-24 24 10.746094 24 24-10.746094 24-24 24zm0 0"/><path d="m368 224c-22.089844 0-40 17.910156-40 40s17.910156 40 40 40 40-17.910156 40-40c-.027344-22.082031-17.917969-39.972656-40-40zm0 64c-13.253906 0-24-10.746094-24-24s10.746094-24 24-24 24 10.746094 24 24-10.746094 24-24 24zm0 0"/><path d="m296 232h-96c-4.078125 0-7.503906 3.066406-7.953125 7.121094l-8 72c-.25 2.261718.476563 4.519531 1.992187 6.214844 1.519532 1.695312 3.6875 2.664062 5.960938 2.664062h112c2.273438 0 4.441406-.96875 5.960938-2.664062 1.515624-1.695313 2.242187-3.953126 1.992187-6.214844l-8-72c-.449219-4.054688-3.875-7.121094-7.953125-7.121094zm-95.0625 72 6.230469-56h81.632812l6.230469 56zm0 0"/><path d="m348.246094 166.863281-9.132813-64c-.566406-3.9375-3.9375-6.859375-7.914062-6.863281h-166.398438c-3.984375-.003906-7.363281 2.921875-7.929687 6.863281l-9.136719 64c-.328125 2.300781.359375 4.628907 1.882813 6.382813 1.523437 1.753906 3.730468 2.757812 6.054687 2.753906h184.65625c2.320313 0 4.527344-1.007812 6.046875-2.757812 1.519531-1.753907 2.203125-4.082032 1.871094-6.378907zm-183.351563-6.863281 6.859375-48h152.492188l6.859375 48zm0 0"/><path d="m248 120h-64c-4.417969 0-8 3.582031-8 8s3.582031 8 8 8h64c4.417969 0 8-3.582031 8-8s-3.582031-8-8-8zm0 0"/><path d="m280 120h-8c-4.417969 0-8 3.582031-8 8s3.582031 8 8 8h8c4.417969 0 8-3.582031 8-8s-3.582031-8-8-8zm0 0"/><path d="m456 432h-22.238281c3.992187-4.375 6.21875-10.078125 6.238281-16v-32h32c4.417969 0 8-3.582031 8-8v-40c0-4.417969-3.582031-8-8-8h-24v-40c-.066406-45.21875-29.296875-85.230469-72.351562-99.039062l-4.136719-28.960938h12.488281c0 13.253906 10.746094 24 24 24h32c4.417969 0 8-3.582031 8-8v-40c0-4.417969-3.582031-8-8-8h-32c-10.238281.046875-19.324219 6.585938-22.617188 16.28125-.449218-.140625-.914062-.234375-1.382812-.28125h-14.769531l-8.328125-58.265625c-1.152344-7.863281-7.886719-13.703125-15.839844-13.734375h-9.0625v-8h40c4.417969 0 8-3.582031 8-8v-32c0-4.417969-3.582031-8-8-8h-40v-8c0-4.417969-3.582031-8-8-8s-8 3.582031-8 8v8h-64v-8c0-4.417969-3.582031-8-8-8s-8 3.582031-8 8v8h-64v-8c0-4.417969-3.582031-8-8-8s-8 3.582031-8 8v8h-40c-4.417969 0-8 3.582031-8 8v32c0 4.417969 3.582031 8 8 8h40v8h-9.0625c-7.953125.03125-14.6875 5.871094-15.839844 13.734375l-9.496094 66.265625h-13.601562c0-13.253906-10.746094-24-24-24h-32c-4.417969 0-8 3.582031-8 8v40c0 4.417969 3.582031 8 8 8h32c10.238281-.046875 19.324219-6.585938 22.617188-16.28125.449218.140625.914062.234375 1.382812.28125h11.34375l-2.992188 20.960938c-43.054687 13.808593-72.285156 53.820312-72.351562 99.039062v40h-24c-4.417969 0-8 3.582031-8 8v40c0 4.417969 3.582031 8 8 8h32v32c.019531 5.921875 2.246094 11.625 6.238281 16h-54.238281c-4.417969 0-8 3.582031-8 8s3.582031 8 8 8h448c4.417969 0 8-3.582031 8-8s-3.582031-8-8-8zm-56-280c0-4.417969 3.582031-8 8-8h24v24h-24c-4.417969 0-8-3.582031-8-8zm-304 8c0 4.417969-3.582031 8-8 8h-24v-24h24c4.417969 0 8 3.582031 8 8zm328 256c0 4.417969-3.582031 8-8 8h-24c-4.417969 0-8-3.582031-8-8v-32h40zm-104-344h-64v-8h64zm-192-24v-16h240v16zm48 16h64v8h-64zm-38.777344 120 13.714844-96h194.125l13.714844 96zm-73.222656 104c.058594-48.578125 39.421875-87.941406 88-88h192c48.578125.058594 87.941406 39.421875 88 88v40h-368zm-32 56h432v24h-432zm80 40v32c0 4.417969-3.582031 8-8 8h-24c-4.417969 0-8-3.582031-8-8v-32zm16 32v-32h240v32c.019531 5.921875 2.246094 11.625 6.238281 16h-252.476562c3.992187-4.375 6.21875-10.078125 6.238281-16zm0 0"/><path d="m488 432h-8c-4.417969 0-8 3.582031-8 8s3.582031 8 8 8h8c4.417969 0 8-3.582031 8-8s-3.582031-8-8-8zm0 0"/></g></svg>