<svg height="496pt" viewBox="0 0 496 496" width="496pt" xmlns="http://www.w3.org/2000/svg"><path d="m488 248c0 132.546875-107.453125 240-240 240s-240-107.453125-240-240 107.453125-240 240-240 240 107.453125 240 240zm0 0" fill="#acabb1"/><path d="m448 248c0 110.457031-89.542969 200-200 200s-200-89.542969-200-200 89.542969-200 200-200 200 89.542969 200 200zm0 0" fill="#1a6fb0"/><g fill="#d1d3d4"><path d="m217.039062 239.839844c1.460938-5.46875 4.332032-10.460938 8.320313-14.480469l-8.160156 14.242187zm0 0"/><path d="m225.359375 225.359375c4.019531-3.988281 9.011719-6.859375 14.480469-8.320313l-.238282.160157zm0 0"/><path d="m256.398438 278.800781 14.242187-8.160156c-4.019531 3.988281-9.011719 6.859375-14.480469 8.320313zm0 0"/><path d="m278.960938 256.160156c-1.460938 5.46875-4.332032 10.460938-8.320313 14.480469l8.160156-14.242187zm0 0"/><path d="m278.960938 256.160156-.160157.238282-8.160156 14.242187-14.242187 8.160156-.238282.160157c-11.015625 2.914062-22.753906-.25-30.8125-8.308594s-11.222656-19.796875-8.308594-30.8125l.160157-.238282 8.160156-14.242187 14.242187-8.160156.238282-.160157c11.015625-2.914062 22.753906.25 30.8125 8.308594s11.222656 19.796875 8.308594 30.8125zm0 0"/></g><path d="m278.960938 256.160156c2.914062-11.015625-.25-22.753906-8.308594-30.8125s-19.796875-11.222656-30.8125-8.308594l93.039062-53.917968zm0 0" fill="#ff5023"/><path d="m256.160156 278.960938-93.039062 53.917968 53.917968-93.039062c-2.914062 11.015625.25 22.753906 8.308594 30.8125s19.796875 11.222656 30.8125 8.308594zm0 0" fill="#ffda44"/><path d="m270.625 270.625-14.191406 8.207031-93.289063 54.023438" fill="#d1d3d4"/><path d="m383.769531 112.230469-28.289062 28.289062" fill="#d1d3d4"/><path d="m140.519531 355.480469-28.289062 28.289062" fill="#d1d3d4"/><path d="m383.769531 383.769531-28.289062-28.289062" fill="#d1d3d4"/><path d="m140.519531 140.519531-28.289062-28.289062" fill="#d1d3d4"/><path d="m248 0c-136.964844 0-248 111.035156-248 248s111.035156 248 248 248 248-111.035156 248-248c-.160156-136.902344-111.097656-247.839844-248-248zm0 480c-128.128906 0-232-103.871094-232-232s103.871094-232 232-232 232 103.871094 232 232c-.140625 128.070312-103.929688 231.859375-232 232zm0 0" fill="#231f20"/><path d="m248 40c-114.875 0-208 93.125-208 208s93.125 208 208 208 208-93.125 208-208c-.132812-114.820312-93.179688-207.867188-208-208zm141.222656 337.910156-28.085937-28.085937c-3.140625-3.03125-8.128907-2.988281-11.214844.097656s-3.128906 8.074219-.097656 11.214844l28.085937 28.085937c-33.347656 30.789063-76.558594 48.71875-121.910156 50.578125v-23.800781c0-4.417969-3.582031-8-8-8s-8 3.582031-8 8v23.800781c-45.351562-1.859375-88.5625-19.789062-121.910156-50.578125l28.085937-28.085937c3.03125-3.140625 2.988281-8.128907-.097656-11.214844s-8.074219-3.128906-11.214844-.097656l-28.085937 28.085937c-30.789063-33.347656-48.71875-76.558594-50.578125-121.910156h23.800781c4.417969 0 8-3.582031 8-8s-3.582031-8-8-8h-23.800781c1.859375-45.351562 19.789062-88.5625 50.578125-121.910156l28.085937 28.085937c3.140625 3.03125 8.128907 2.988281 11.214844-.097656s3.128906-8.074219.097656-11.214844l-28.085937-28.085937c33.347656-30.789063 76.558594-48.71875 121.910156-50.578125v23.800781c0 4.417969 3.582031 8 8 8s8-3.582031 8-8v-23.800781c45.351562 1.859375 88.5625 19.789062 121.910156 50.578125l-28.085937 28.085937c-2.078125 2.007813-2.914063 4.984375-2.183594 7.78125.734375 2.796875 2.917969 4.980469 5.714844 5.714844 2.796875.730469 5.773437-.105469 7.78125-2.183594l28.085937-28.085937c30.789063 33.347656 48.71875 76.558594 50.578125 121.910156h-23.800781c-4.417969 0-8 3.582031-8 8s3.582031 8 8 8h23.800781c-1.859375 45.351562-19.789062 88.5625-50.578125 121.910156zm0 0" fill="#231f20"/><path d="m340.800781 162.398438c0-.085938 0-.175782 0-.261719-.140625-.964844-.457031-1.898438-.929687-2.753907-.039063-.070312-.039063-.160156-.078125-.230468-.128907-.214844-.328125-.328125-.464844-.527344-.230469-.398438-.5-.773438-.800781-1.121094-.164063-.136718-.335938-.261718-.519532-.375-.273437-.234375-.570312-.445312-.878906-.632812-.515625-.332032-1.070312-.601563-1.648437-.800782-.320313-.121093-.648438-.222656-.984375-.296874-.625-.125-1.265625-.167969-1.902344-.132813-.316406-.019531-.632812-.019531-.945312 0-.976563.136719-1.921876.453125-2.785157.933594l-93.09375 53.90625c-5.617187 1.773437-10.761719 4.777343-15.066406 8.796875-.117187.089844-.214844.1875-.328125.273437-.109375.089844-.453125.335938-.664062.535157-.207032.199218-.34375.464843-.542969.671874-.199219.210938-.175781.203126-.257813.3125-4.015625 4.308594-7.023437 9.457032-8.796875 15.074219l-53.890625 93.070313c-.191406.410156-.347656.835937-.46875 1.273437-.140625.300781-.257812.609375-.355468.925781-.195313.847657-.257813 1.71875-.175782 2.585938v.246094c.144532.964844.457032 1.898437.929688 2.753906 0 .070312 0 .160156.078125.230469.324219.53125.703125 1.019531 1.136719 1.464843.039062.066407.085937.125.136718.183594.671875.65625 1.457032 1.183594 2.320313 1.550782.214843.097656.414062.175781.632812.257812.855469.324219 1.757813.5 2.671875.519531.683594.003907 1.367188-.085937 2.03125-.265625.6875-.175781 1.351563-.445312 1.96875-.796875l93.070313-53.882812c5.941406-1.847657 11.359375-5.074219 15.816406-9.414063.0625-.066406.144531-.113281.214844-.175781.210937-.207031.34375-.464844.546875-.671875.199218-.210938.175781-.199219.253906-.3125 4.019531-4.304688 7.027344-9.457031 8.800781-15.074219l53.945313-93.039062c.261718-.734375.527344-1.46875.796875-2.199219.21875-.847656.296875-1.726562.226562-2.601562zm-92.800781 61.601562c7.355469-.023438 14.308594 3.339844 18.855469 9.125 4.542969 5.78125 6.171875 13.335938 4.410156 20.476562l-6.464844 11.199219-11.199219 6.480469c-8.09375 1.992188-16.640624-.386719-22.535156-6.277344-5.898437-5.886718-8.289062-14.429687-6.304687-22.523437l6.484375-11.199219 11.203125-6.480469c1.8125-.484375 3.675781-.753906 5.550781-.800781zm-36.175781 40.734375c3.808593 8.6875 10.746093 15.621094 19.433593 19.433594l-46.144531 26.710937zm72.351562-33.488281c-3.808593-8.683594-10.746093-15.621094-19.433593-19.429688l46.144531-26.710937zm0 0" fill="#231f20"/><path d="m120 240h-16c-4.417969 0-8 3.582031-8 8s3.582031 8 8 8h16c4.417969 0 8-3.582031 8-8s-3.582031-8-8-8zm0 0" fill="#231f20"/></svg>