<svg height="496pt" viewBox="-96 0 496 496" width="496pt" xmlns="http://www.w3.org/2000/svg"><path d="m200 104h-96c-53.019531 0-96 42.980469-96 96v192c0 53.019531 42.980469 96 96 96h96c53.019531 0 96-42.980469 96-96v-192c0-53.019531-42.980469-96-96-96zm-48 32c13.253906 0 24 10.746094 24 24s-10.746094 24-24 24-24-10.746094-24-24 10.746094-24 24-24zm0 0" fill="#91cc04"/><path d="m243.640625 289.457031c.058594 7.78125-2.210937 15.40625-6.519531 21.886719-8.8125-11.246094-24.246094-14.878906-37.152344-8.746094-12.902344 6.128906-19.832031 20.390625-16.679688 34.324219 3.152344 13.9375 15.542969 23.824219 29.832032 23.804687 3.15625.023438 6.296875-.492187 9.277344-1.527343-4.078126 18.722656-20.652344 32.074219-39.8125 32.074219-2.734376-.007813-5.460938-.277344-8.144532-.800782-6.457031 14.371094-13.957031 28.253906-22.441406 41.527344-8.472656-13.28125-15.960938-27.167969-22.398438-41.542969-2.683593.523438-5.410156.792969-8.144531.800781-19.160156.003907-35.730469-13.339843-39.816406-32.058593 2.980469 1.035156 6.117187 1.550781 9.269531 1.527343 14.289063.019532 26.683594-9.867187 29.835938-23.804687 3.152344-13.933594-3.777344-28.195313-16.683594-34.324219-12.90625-6.132812-28.335938-2.5-37.152344 8.746094-4.304687-6.480469-6.578125-14.105469-6.519531-21.886719-.003906-22.496093 18.234375-40.734375 40.730469-40.730469 9.101562.035157 17.925781 3.164063 25.015625 8.875 7.167969-17.253906 15.820312-33.847656 25.863281-49.601562 10.042969 15.753906 18.695312 32.347656 25.863281 49.601562 7.101563-5.710937 15.9375-8.835937 25.046875-8.859374 22.492188-.003907 40.726563 18.226562 40.730469 40.714843zm0 0" fill="#cca400"/><g fill="#231f20"><path d="m202.878906 240.71875c-7.421875-.003906-14.742187 1.75-21.359375 5.121094-6.566406-14.628906-14.214843-28.75-22.878906-42.238282-1.554687-2.113281-4.019531-3.363281-6.640625-3.363281s-5.085938 1.25-6.640625 3.363281c-8.664063 13.488282-16.3125 27.609376-22.878906 42.238282-6.617188-3.371094-13.9375-5.125-21.359375-5.121094-26.902344.019531-48.703125 21.820312-48.722656 48.722656-.058594 9.378906 2.671874 18.570313 7.839843 26.398438 1.425781 2.113281 3.773438 3.421875 6.320313 3.519531 2.578125.140625 5.0625-.996094 6.640625-3.039063 6.496093-8.289062 17.871093-10.964843 27.382812-6.445312 9.511719 4.523438 14.617188 15.035156 12.292969 25.304688-2.328125 10.273437-11.464844 17.558593-21.996094 17.539062-2.226562 0-4.441406-.351562-6.558594-1.039062-2.71875-.972657-5.753906-.390626-7.921874 1.519531-2.210938 1.886719-3.199219 4.84375-2.558594 7.679687 5.058594 23.679688 26.808594 40 50.960937 38.242188 6.003907 12.875 12.871094 25.332031 20.558594 37.277344 1.460937 2.25 3.960937 3.605468 6.640625 3.605468s5.179688-1.355468 6.640625-3.605468c7.6875-11.945313 14.554687-24.402344 20.558594-37.277344 24.140625 1.726562 45.871093-14.578125 50.960937-38.242188.640625-2.835937-.347656-5.792968-2.558594-7.679687-2.167968-1.910157-5.203124-2.492188-7.921874-1.519531-2.117188.6875-4.332032 1.039062-6.558594 1.039062-10.578125.066406-19.78125-7.230469-22.132813-17.542969-2.351562-10.3125 2.78125-20.875 12.339844-25.402343 9.558594-4.53125 20.980469-1.808594 27.472656 6.546874 1.570313 2.054688 4.058594 3.195313 6.640625 3.039063 2.546875-.097656 4.894532-1.40625 6.320313-3.519531 5.167969-7.828125 7.898437-17.019532 7.839843-26.398438-.019531-26.902344-21.820312-48.703125-48.722656-48.722656zm31.601563 57.359375c-13.402344-8.929687-30.949219-8.585937-43.992188.863281-13.042969 9.453125-18.832031 26.015625-14.519531 41.535156 4.3125 15.519532 17.824219 26.71875 33.871094 28.082032-6.0625 9.15625-16.296875 14.679687-27.28125 14.722656-2.226563-.027344-4.445313-.242188-6.636719-.640625-3.636719-.699219-7.277344 1.1875-8.800781 4.558594-5.359375 11.839843-10.960938 22.160156-15.121094 29.441406-4.160156-7.28125-9.761719-17.519531-15.121094-29.441406-1.257812-2.890625-4.125-4.75-7.277344-4.71875-.511718-.023438-1.027343.03125-1.523437.160156-2.191406.398437-4.410156.613281-6.636719.640625-10.984375-.042969-21.21875-5.566406-27.28125-14.722656 16.0625-1.351563 29.585938-12.550782 33.90625-28.082032 4.320313-15.527343-1.476562-32.101562-14.53125-41.558593-13.050781-9.453125-30.609375-9.785157-44.015625-.839844-.78125-2.8125-1.15625-5.71875-1.121093-8.636719.046874-18.054687 14.667968-32.675781 32.722656-32.722656 7.304687.042969 14.378906 2.554688 20.078125 7.121094 1.953125 1.570312 4.53125 2.132812 6.960937 1.519531 2.421875-.65625 4.402344-2.402344 5.359375-4.71875 5.386719-12.796875 11.558594-25.246094 18.480469-37.28125 6.921875 12.035156 13.09375 24.484375 18.480469 37.28125.929687 2.335937 2.917969 4.085937 5.347656 4.71875 2.433594.632813 5.023437.066406 6.972656-1.519531 5.699219-4.566406 12.773438-7.078125 20.078125-7.121094 18.054688.046875 32.675782 14.667969 32.722656 32.722656.035157 2.917969-.339843 5.824219-1.121093 8.636719zm0 0"/><path d="m200 96h-8.398438c.238282-4 .398438-8 .398438-12 0-40.71875-14-84-40-84s-40 43.28125-40 84c0 4 .160156 8 .398438 12h-8.398438c-57.414062.054688-103.9453125 46.585938-104 104v192c.0546875 57.414062 46.585938 103.945312 104 104h96c57.414062-.054688 103.945312-46.585938 104-104v-192c-.054688-57.414062-46.585938-103.945312-104-104zm-72-12c0-41.519531 14.238281-68 24-68s24 26.480469 24 68c0 4.160156-.160156 8.160156-.480469 12h-47.039062c-.320313-3.839844-.480469-7.839844-.480469-12zm24 84c5.894531-.054688 11.558594-2.277344 15.921875-6.238281-.824219 8.175781-7.703125 14.398437-15.921875 14.398437s-15.097656-6.222656-15.921875-14.398437c4.363281 3.960937 10.027344 6.183593 15.921875 6.238281zm-8.480469-21.601562c5.199219-3.199219 11.761719-3.199219 16.960938 0-1.859375 3.03125-4.964844 5.082031-8.480469 5.601562-3.515625-.519531-6.621094-2.570312-8.480469-5.601562zm144.480469 245.601562c-.03125 48.589844-39.410156 87.96875-88 88h-96c-48.589844-.03125-87.96875-39.410156-88-88v-192c.03125-48.589844 39.410156-87.96875 88-88h10.238281c1.613281 11.335938 4.847657 22.382812 9.601563 32.800781v.078125c-2.539063 4.632813-3.859375 9.835938-3.839844 15.121094 0 17.671875 14.328125 32 32 32s32-14.328125 32-32c.019531-5.285156-1.300781-10.488281-3.839844-15.121094v-.078125c-4.125-7.632812-11.175781-13.265625-19.53125-15.601562-8.355468-2.339844-17.300781-1.183594-24.789062 3.199219-2.527344-6.585938-4.351563-13.425782-5.441406-20.398438h69.601562c48.589844.03125 87.96875 39.410156 88 88zm0 0"/><path d="m152 456h-64c-4.417969 0-8 3.582031-8 8s3.582031 8 8 8h64c4.417969 0 8-3.582031 8-8s-3.582031-8-8-8zm0 0"/><path d="m184 456h-8c-4.417969 0-8 3.582031-8 8s3.582031 8 8 8h8c4.417969 0 8-3.582031 8-8s-3.582031-8-8-8zm0 0"/></g></svg>