<svg height="495pt" viewBox="-43 0 495 495.78727" width="495pt" xmlns="http://www.w3.org/2000/svg"><path d="m401.117188 182.332031c.125 16.679688-4.734376 33.015625-13.960938 46.914063-18.878906-24.082032-51.929688-31.863282-79.570312-18.738282-27.640626 13.125-42.496094 43.65625-35.765626 73.507813 6.730469 29.851563 33.246094 51.050781 63.847657 51.046875 6.753906.050781 13.46875-1.058594 19.847656-3.273438-8.730469 40.121094-44.242187 68.734376-85.304687 68.726563-5.859376-.027344-11.703126-.613281-17.453126-1.742187-13.804687 30.804687-29.847656 60.554687-48 89.015624-18.15625-28.460937-34.199218-58.210937-48-89.015624-5.753906 1.128906-11.597656 1.714843-17.457031 1.742187-41.0625.007813-76.574219-28.605469-85.304687-68.726563 6.378906 2.214844 13.09375 3.324219 19.847656 3.273438 30.617188.019531 57.15625-21.183594 63.894531-51.050781 6.738281-29.863281-8.125-60.410157-35.78125-73.539063-27.660156-13.128906-60.722656-5.332031-79.601562 18.773438-9.226563-13.898438-14.085938-30.234375-13.960938-46.914063-.011719-48.203125 39.070313-87.285156 87.273438-87.269531 19.527343.046875 38.457031 6.742188 53.671875 18.984375 15.363281-36.957031 33.90625-72.507813 55.417968-106.257813 21.507813 33.75 40.050782 69.300782 55.414063 106.257813 15.214844-12.242187 34.144531-18.9375 53.671875-18.984375 48.203125-.015625 87.285156 39.066406 87.273438 87.269531zm0 0" fill="#ffda44"/><path d="m162.691406 165.535156 16.222656-39.265625c8.441407-20.441406 17.601563-39.199219 25.832032-54.816406 8.273437 15.671875 17.433594 34.398437 25.851562 54.816406l16.222656 39.265625 33.265626-26.402344c9.554687-7.730468 21.464843-11.976562 33.757812-12.039062 28.820312.035156 52.789062 22.179688 55.105469 50.902344-50.027344-18.179688-105.386719 7.132812-124.367188 56.859375-18.980469 49.726562 5.4375 105.484375 54.855469 125.261719-8.757812 5.5-18.886719 8.421874-29.226562 8.433593-3.839844-.03125-7.671876-.425781-11.4375-1.175781l-24.839844-4.753906-10.402344 23.0625c-6.3125 14.066406-12.800781 27.074218-18.808594 38.464844-6.015625-11.390626-12.496094-24.398438-18.808594-38.453126l-10.398437-23.074218-24.847656 4.753906c-3.769531.75-7.597657 1.144531-11.441407 1.175781-10.339843-.011719-20.464843-2.933593-29.222656-8.433593 49.417969-19.777344 73.835938-75.535157 54.855469-125.261719-18.980469-49.726563-74.339844-75.039063-124.367187-56.859375 2.316406-28.722656 26.285156-50.867188 55.105468-50.902344 12.292969.0625 24.199219 4.308594 33.757813 12.039062l33.265625 26.402344" fill="#cca400"/><g fill="#231f20"><path d="m313.84375 87.0625c-17.789062-.015625-35.210938 5.082031-50.183594 14.6875-14.734375-34.15625-32.203125-67.0625-52.238281-98.402344-1.570313-2.105468-4.039063-3.347656-6.664063-3.347656-2.628906 0-5.097656 1.242188-6.664062 3.347656-20.039062 31.339844-37.507812 64.246094-52.242188 98.402344-14.972656-9.605469-32.394531-14.703125-50.183593-14.6875-52.589844.0625-95.210938 42.679688-95.273438 95.269531-.128906 18.273438 5.207031 36.164063 15.328125 51.378907 1.429688 2.121093 3.78125 3.429687 6.335938 3.527343 2.570312.152344 5.042968-.992187 6.585937-3.046875 16.570313-21.144531 45.578125-27.980468 69.84375-16.460937s37.304688 38.316406 31.398438 64.519531-29.183594 44.816406-56.042969 44.8125c-5.835938.050781-11.640625-.894531-17.160156-2.800781-2.734375-.976563-5.785156-.394531-7.96875 1.519531-2.183594 1.917969-3.15625 4.863281-2.542969 7.703125 10.496094 48.566406 56.601563 80.875 105.832031 74.160156 13.367188 29.234375 28.765625 57.492188 46.089844 84.570313 1.480469 2.230468 3.984375 3.574218 6.664062 3.574218 2.679688 0 5.179688-1.34375 6.664063-3.574218 17.320313-27.078125 32.71875-55.335938 46.085937-84.570313 49.230469 6.714844 95.335938-25.59375 105.832032-74.160156.613281-2.839844-.359375-5.785156-2.542969-7.703125-2.183594-1.914062-5.234375-2.496094-7.96875-1.519531-5.519531 1.90625-11.320313 2.851562-17.160156 2.800781-26.875.019531-50.175781-18.59375-56.089844-44.8125s7.136719-53.03125 31.417969-64.554688c24.28125-11.519531 53.304687-4.667968 69.871094 16.496094 1.546874 2.054688 4.019531 3.199219 6.585937 3.046875 2.554687-.097656 4.90625-1.40625 6.335937-3.527343 10.121094-15.214844 15.457032-33.105469 15.328126-51.378907-.0625-52.589843-42.679688-95.207031-95.273438-95.269531zm71.808594 128.726562c-24.109375-22.40625-60.179688-26.039062-88.269532-8.890624-28.09375 17.148437-41.347656 50.890624-32.4375 82.574218 8.910157 31.683594 37.808594 53.574219 70.722657 53.566406 2.738281 0 5.476562-.148437 8.199219-.449218-12.144532 30.042968-41.25 49.761718-73.65625 49.902344-5.355469-.03125-10.695313-.570313-15.949219-1.597657-3.640625-.699219-7.28125 1.195313-8.800781 4.574219-11.992188 26.5625-25.585938 52.367188-40.703126 77.28125-15.128906-24.902344-28.722656-50.699219-40.707031-77.257812-1.519531-3.378907-5.160156-5.269532-8.796875-4.574219-5.257812 1.03125-10.597656 1.566406-15.953125 1.597656-32.40625-.140625-61.511719-19.859375-73.65625-49.902344 2.722657.300781 5.460938.449219 8.199219.449219 32.914062.003906 61.8125-21.882812 70.726562-53.570312 8.910157-31.683594-4.34375-65.425782-32.433593-82.578126-28.089844-17.152343-64.164063-13.527343-88.277344 8.875-4.976563-10.457031-7.527344-21.898437-7.464844-33.480468.050781-43.757813 35.511719-79.222656 79.273438-79.269532 17.726562.015626 34.910156 6.105469 48.695312 17.246094 1.964844 1.5625 4.550781 2.109375 6.980469 1.480469 2.433594-.628906 4.425781-2.359375 5.386719-4.679687 13.625-32.582032 29.679687-64.089844 48.027343-94.265626 18.339844 30.179688 34.382813 61.695313 48 94.28125.960938 2.320313 2.953126 4.054688 5.382813 4.683594 2.433594.628906 5.019531.078125 6.984375-1.484375 13.785156-11.140625 30.96875-17.226562 48.695312-17.246093 43.761719.046874 79.222657 35.511718 79.273438 79.269531.066406 11.574219-2.476562 23.011719-7.441406 33.464843zm0 0"/><path d="m313.84375 119.0625c-14.105469.054688-27.769531 4.914062-38.742188 13.773438l-24.945312 19.824218-12.167969-29.445312c-7.441406-18.035156-16.25-36.707032-26.167969-55.496094-1.386718-2.621094-4.109374-4.261719-7.074218-4.261719-2.960938 0-5.683594 1.640625-7.070313 4.261719-9.863281 18.679688-18.664062 37.351562-26.152343 55.496094l-12.167969 29.445312-24.945313-19.824218c-10.972656-8.859376-24.636718-13.71875-38.742187-13.773438-32.953125.136719-60.339844 25.4375-63.078125 58.277344-.214844 2.714844.960937 5.347656 3.125 6.996094 2.164062 1.648437 5.019531 2.085937 7.578125 1.15625 46.117187-17.410157 97.628906 5.757812 115.203125 51.8125 17.574218 46.058593-5.410156 97.652343-51.402344 115.390624-2.796875 1.117188-4.726562 3.714844-4.992188 6.714844-.265624 3 1.171876 5.894532 3.726563 7.492188 10.03125 6.292968 21.628906 9.636718 33.472656 9.648437 4.34375-.035156 8.679688-.472656 12.941407-1.3125l18.632812-3.578125 7.777344 17.320313c5.726562 12.746093 12.128906 25.832031 19.03125 38.90625 1.386718 2.621093 4.109375 4.257812 7.074218 4.257812 2.960938 0 5.683594-1.636719 7.070313-4.257812 6.886719-13.035157 13.289063-26.128907 19.03125-38.914063l7.777344-17.3125 18.625 3.578125c4.265625.839844 8.601562 1.277344 12.949219 1.3125 11.84375-.011719 23.441406-3.355469 33.472656-9.648437 2.554687-1.597656 3.992187-4.492188 3.726562-7.492188s-2.195312-5.597656-4.988281-6.714844c-45.996094-17.738281-68.980469-69.332031-51.40625-115.390624 17.574219-46.054688 69.085937-69.222657 115.203125-51.8125 2.558594.929687 5.414062.492187 7.578125-1.15625 2.164063-1.648438 3.34375-4.28125 3.128906-6.996094-2.742187-32.839844-30.128906-58.140625-63.082031-58.277344zm21.824219 45.09375c-47.171875.003906-88.605469 31.328125-101.464844 76.710938-12.863281 45.386718 5.980469 93.789062 46.136719 118.539062-6.605469 1.457031-13.445313 1.484375-20.0625.078125l-24.800782-4.800781c-3.640624-.695313-7.28125 1.199218-8.800781 4.578125l-10.398437 23.070312c-3.59375 8-7.441406 16.105469-11.511719 24.25-4.082031-8.152343-7.9375-16.273437-11.511719-24.234375l-10.402344-23.078125c-1.53125-3.371093-5.160156-5.261719-8.800781-4.585937l-24.855469 4.800781c-6.613281 1.410156-13.453124 1.382813-20.054687-.078125 43.773437-27.027344 61.671875-81.683594 42.359375-129.367188-19.308594-47.683593-70.195312-74.484374-120.441406-63.433593 6.742187-18.847657 24.558594-31.460938 44.578125-31.550781 10.492187.058593 20.648437 3.691406 28.800781 10.304687l33.261719 26.398437c1.964843 1.566407 4.554687 2.117188 6.988281 1.488282s4.429688-2.367188 5.386719-4.6875l16.21875-39.273438c5.464843-13.222656 11.640625-26.742187 18.398437-40.359375 6.832032 13.664063 13.015625 27.199219 18.457032 40.359375l16.273437 39.304688c.957031 2.320312 2.953125 4.058594 5.386719 4.6875s5.023437.078125 6.988281-1.488282l33.261719-26.398437c8.148437-6.609375 18.308594-10.246094 28.800781-10.304687 20.019531.089843 37.835937 12.703124 44.578125 31.550781-7.476562-1.648438-15.113281-2.480469-22.769531-2.480469zm0 0"/></g></svg>