<svg height="496pt" viewBox="0 -4 496 496" width="496pt" xmlns="http://www.w3.org/2000/svg"><path d="m8 80h480v320h-480zm0 0" fill="#e6e7e8"/><path d="m40 400h32v80h-32zm0 0" fill="#603913"/><path d="m424 400h32v80h-32zm0 0" fill="#603913"/><g fill="#cca400"><path d="m200 8h96v32h-96zm0 0"/><path d="m40 8h96v32h-96zm0 0"/><path d="m360 8h96v32h-96zm0 0"/><path d="m339.640625 217.457031c.058594 7.78125-2.210937 15.40625-6.519531 21.886719-8.8125-11.246094-24.246094-14.878906-37.152344-8.746094-12.902344 6.128906-19.832031 20.390625-16.679688 34.324219 3.152344 13.9375 15.542969 23.824219 29.832032 23.804687 3.15625.023438 6.296875-.492187 9.277344-1.527343-4.078126 18.722656-20.652344 32.074219-39.8125 32.074219-2.734376-.007813-5.460938-.277344-8.144532-.800782-6.457031 14.371094-13.957031 28.253906-22.441406 41.527344-8.472656-13.28125-15.960938-27.167969-22.398438-41.542969-2.683593.523438-5.410156.792969-8.144531.800781-19.160156.003907-35.730469-13.339843-39.816406-32.058593 2.980469 1.035156 6.117187 1.550781 9.269531 1.527343 14.289063.019532 26.683594-9.867187 29.835938-23.804687 3.152344-13.933594-3.777344-28.195313-16.683594-34.324219-12.90625-6.132812-28.335938-2.5-37.152344 8.746094-4.304687-6.480469-6.578125-14.105469-6.519531-21.886719-.003906-22.496093 18.234375-40.734375 40.730469-40.730469 9.101562.035157 17.925781 3.164063 25.015625 8.875 7.167969-17.253906 15.820312-33.847656 25.863281-49.601562 10.042969 15.753906 18.695312 32.347656 25.863281 49.601562 7.101563-5.710937 15.9375-8.835937 25.046875-8.859374 22.492188-.003907 40.726563 18.226562 40.730469 40.714843zm0 0"/></g><path d="m488 72h-72v-24h40c4.417969 0 8-3.582031 8-8v-32c0-4.417969-3.582031-8-8-8h-96c-4.417969 0-8 3.582031-8 8v32c0 4.417969 3.582031 8 8 8h40v24h-144v-24h40c4.417969 0 8-3.582031 8-8v-32c0-4.417969-3.582031-8-8-8h-96c-4.417969 0-8 3.582031-8 8v32c0 4.417969 3.582031 8 8 8h40v24h-144v-24h40c4.417969 0 8-3.582031 8-8v-32c0-4.417969-3.582031-8-8-8h-96c-4.417969 0-8 3.582031-8 8v32c0 4.417969 3.582031 8 8 8h40v24h-72c-4.417969 0-8 3.582031-8 8v320c0 4.417969 3.582031 8 8 8h24v72c0 4.417969 3.582031 8 8 8h32c4.417969 0 8-3.582031 8-8v-72h336v72c0 4.417969 3.582031 8 8 8h32c4.417969 0 8-3.582031 8-8v-72h24c4.417969 0 8-3.582031 8-8v-320c0-4.417969-3.582031-8-8-8zm-120-40v-16h80v16zm-160 0v-16h80v16zm-160 0v-16h80v16zm16 440h-16v-64h16zm384 0h-16v-64h16zm32-80h-464v-304h464zm0 0" fill="#231f20"/><path d="m352 120h72c4.417969 0 8-3.582031 8-8s-3.582031-8-8-8h-72c-4.417969 0-8 3.582031-8 8s3.582031 8 8 8zm0 0" fill="#231f20"/><path d="m448 120h8c4.417969 0 8-3.582031 8-8s-3.582031-8-8-8h-8c-4.417969 0-8 3.582031-8 8s3.582031 8 8 8zm0 0" fill="#231f20"/><path d="m162.59375 247.335938c2.558594.121093 5.015625-1.019532 6.574219-3.054688 6.503906-8.300781 17.890625-10.984375 27.414062-6.464844 9.523438 4.523438 14.644531 15.042969 12.324219 25.328125-2.320312 10.285157-11.457031 17.589844-22.003906 17.582031-2.234375.023438-4.457032-.339843-6.574219-1.0625-2.734375-.976562-5.785156-.390624-7.96875 1.527344-2.179687 1.917969-3.152344 4.867188-2.535156 7.703125 4.949219 22.359375 24.730469 38.308594 47.632812 38.402344 1.085938 0 2.207031 0 3.34375-.113281 6.019531 12.855468 12.878907 25.304687 20.527344 37.265625 1.480469 2.238281 3.988281 3.585937 6.671875 3.585937s5.191406-1.347656 6.671875-3.585937c7.648437-11.957031 14.507813-24.398438 20.527344-37.25 1.136719.074219 2.257812.113281 3.34375.113281 22.902343-.09375 42.683593-16.042969 47.632812-38.402344.617188-2.835937-.355469-5.785156-2.535156-7.703125-2.183594-1.917969-5.234375-2.503906-7.96875-1.527343-2.117187.726562-4.339844 1.085937-6.574219 1.0625-10.554687.015624-19.703125-7.292969-22.027344-17.582032-2.324218-10.292968 2.800782-20.820312 12.332032-25.34375 9.535156-4.523437 20.929687-1.832031 27.429687 6.480469 1.546875 2.050781 4.011719 3.195313 6.574219 3.054687 2.558594-.089843 4.921875-1.398437 6.355469-3.519531 5.1875-7.808593 7.929687-16.984375 7.871093-26.359375-.039062-26.894531-21.832031-48.6875-48.730468-48.730468-7.4375-.007813-14.773438 1.730468-21.414063 5.082031-6.554687-14.621094-14.183593-28.738281-22.824219-42.230469-1.566406-2.109375-4.039062-3.351562-6.664062-3.351562s-5.097656 1.242187-6.664062 3.351562c-8.640626 13.492188-16.269532 27.609375-22.824219 42.230469-6.640625-3.351563-13.976563-5.089844-21.414063-5.082031-26.898437.042968-48.691406 21.835937-48.730468 48.730468-.058594 9.375 2.683593 18.550782 7.871093 26.359375 1.4375 2.117188 3.796875 3.417969 6.355469 3.503907zm34.503906-62.609376c7.304688.011719 14.390625 2.527344 20.070313 7.121094 1.964843 1.5625 4.550781 2.113282 6.980469 1.480469 2.433593-.628906 4.425781-2.359375 5.386718-4.679687 5.34375-12.808594 11.511719-25.253907 18.464844-37.265626 6.953125 12.007813 13.121094 24.453126 18.464844 37.257813.960937 2.320313 2.953125 4.050781 5.386718 4.679687 2.429688.628907 5.015626.082032 6.980469-1.480468 5.679688-4.59375 12.765625-7.109375 20.070313-7.121094 10.203125.023438 19.8125 4.792969 26.003906 12.902344 6.1875 8.109375 8.25 18.636718 5.582031 28.484375-13.402343-8.949219-30.957031-8.613281-44.011719.835937-13.050781 9.453125-18.851562 26.023438-14.535156 41.550782 4.316406 15.527343 17.832032 26.730468 33.890625 28.09375-6.085937 9.128906-16.316406 14.632812-27.289062 14.679687-2.230469-.015625-4.453125-.238281-6.640625-.671875-3.632813-.679688-7.265625 1.207031-8.796875 4.574219-5.34375 11.902343-10.9375 22.214843-15.105469 29.441406-5.523438-9.554687-10.566406-19.378906-15.105469-29.441406-1.292969-2.867188-4.148437-4.714844-7.292969-4.710938-.507812-.003906-1.007812.042969-1.503906.136719-2.1875.433594-4.410156.65625-6.640625.671875-10.972656-.046875-21.203125-5.550781-27.289062-14.679687 16.058593-1.363282 29.574219-12.566407 33.890625-28.09375 4.316406-15.527344-1.484375-32.097657-14.535156-41.550782-13.054688-9.449218-30.609376-9.785156-44.011719-.835937-2.667969-9.847657-.605469-20.375 5.582031-28.484375 6.191406-8.109375 15.800781-12.878906 26.003906-12.902344zm0 0" fill="#231f20"/></svg>