<svg height="496pt" viewBox="0 -104 496 496" width="496pt" xmlns="http://www.w3.org/2000/svg"><path d="m128 79.773438h-96l48-72zm0 0" fill="#ccfc5c"/><path d="m136 135.773438h-112l37.359375-56h37.28125zm0 0" fill="#91cc04"/><path d="m144 191.773438h-128l37.359375-56h53.28125zm0 0" fill="#4e901e"/><path d="m296 79.773438h-96l48-72zm0 0" fill="#ccfc5c"/><path d="m304 135.773438h-112l37.359375-56h37.28125zm0 0" fill="#91cc04"/><path d="m312 191.773438h-128l37.359375-56h53.28125zm0 0" fill="#4e901e"/><path d="m464 79.773438h-96l48-72zm0 0" fill="#ccfc5c"/><path d="m472 135.773438h-112l37.359375-56h37.28125zm0 0" fill="#91cc04"/><path d="m480 191.773438h-128l37.359375-56h53.28125zm0 0" fill="#4e901e"/><g fill="#231f20"><path d="m456 271.773438h-32v-72h56c2.949219 0 5.664062-1.625 7.054688-4.226563 1.390624-2.601563 1.238281-5.757813-.398438-8.214844l-29.054688-43.558593h14.398438c2.949219 0 5.664062-1.625 7.054688-4.226563 1.390624-2.601563 1.238281-5.757813-.398438-8.214844l-29.054688-43.558593h14.398438c2.949219 0 5.664062-1.625 7.054688-4.226563 1.390624-2.601563 1.238281-5.757813-.398438-8.214844l-48-72c-1.570312-2.097656-4.035156-3.332031-6.65625-3.332031s-5.085938 1.234375-6.65625 3.332031l-48 72c-1.636719 2.457031-1.789062 5.613281-.398438 8.214844 1.390626 2.601563 4.105469 4.226563 7.054688 4.226563h14.398438l-29.054688 43.558593c-1.636719 2.457031-1.789062 5.613281-.398438 8.214844 1.390626 2.601563 4.105469 4.226563 7.054688 4.226563h14.398438l-29.054688 43.558593c-1.636719 2.457031-1.789062 5.613281-.398438 8.214844 1.390626 2.601563 4.105469 4.226563 7.054688 4.226563h56v72h-152v-72h56c2.949219 0 5.664062-1.625 7.054688-4.226563 1.390624-2.601563 1.238281-5.757813-.398438-8.214844l-29.054688-43.558593h14.398438c2.949219 0 5.664062-1.625 7.054688-4.226563 1.390624-2.601563 1.238281-5.757813-.398438-8.214844l-29.054688-43.558593h14.398438c2.949219 0 5.664062-1.625 7.054688-4.226563 1.390624-2.601563 1.238281-5.757813-.398438-8.214844l-48-72c-1.570312-2.097656-4.035156-3.332031-6.65625-3.332031s-5.085938 1.234375-6.65625 3.332031l-48 72c-1.636719 2.457031-1.789062 5.613281-.398438 8.214844 1.390626 2.601563 4.105469 4.226563 7.054688 4.226563h14.398438l-29.054688 43.558593c-1.636719 2.457031-1.789062 5.613281-.398438 8.214844 1.390626 2.601563 4.105469 4.226563 7.054688 4.226563h14.398438l-29.054688 43.558593c-1.636719 2.457031-1.789062 5.613281-.398438 8.214844 1.390626 2.601563 4.105469 4.226563 7.054688 4.226563h56v72h-152v-72h56c2.949219 0 5.664062-1.625 7.054688-4.226563 1.390624-2.601563 1.238281-5.757813-.398438-8.214844l-29.054688-43.558593h14.398438c2.949219 0 5.664062-1.625 7.054688-4.226563 1.390624-2.601563 1.238281-5.757813-.398438-8.214844l-29.054688-43.558593h14.398438c2.949219 0 5.664062-1.625 7.054688-4.226563 1.390624-2.601563 1.238281-5.757813-.398438-8.214844l-48-72c-1.570312-2.097656-4.035156-3.332031-6.65625-3.332031s-5.085938 1.234375-6.65625 3.332031l-48 72c-1.636719 2.457031-1.789062 5.613281-.398438 8.214844 1.390626 2.601563 4.105469 4.226563 7.054688 4.226563h14.398438l-29.054688 43.558593c-1.636719 2.457031-1.789062 5.613281-.398438 8.214844 1.390626 2.601563 4.105469 4.226563 7.054688 4.226563h14.398438l-29.054688 43.558593c-1.636719 2.457031-1.789062 5.613281-.398438 8.214844 1.390626 2.601563 4.105469 4.226563 7.054688 4.226563h56v72h-64c-4.417969 0-8 3.582031-8 8 0 4.417968 3.582031 8 8 8h448c4.417969 0 8-3.582032 8-8 0-4.417969-3.582031-8-8-8zm-40-249.601563 33.046875 49.601563h-66.09375zm-14.398438 65.601563h28.796876l26.691406 40h-82.136719zm-34.648437 96 26.6875-40h44.757813l26.691406 40zm-118.953125-161.601563 33.046875 49.601563h-66.09375zm-14.398438 65.601563h28.796876l26.691406 40h-82.136719zm-34.648437 96 26.6875-40h44.757813l26.691406 40zm-118.953125-161.601563 33.046875 49.601563h-66.09375zm-14.359375 65.601563h28.757813l26.691406 40h-82.136719zm-34.6875 96 26.6875-40h44.757813l26.691406 40zm0 0"/><path d="m488 271.773438h-8c-4.417969 0-8 3.582031-8 8 0 4.417968 3.582031 8 8 8h8c4.417969 0 8-3.582032 8-8 0-4.417969-3.582031-8-8-8zm0 0"/></g></svg>