<svg height="496pt" viewBox="0 -4 496 496" width="496pt" xmlns="http://www.w3.org/2000/svg"><path d="m8 80v320h480v-320zm24 248 37.359375-56h-29.359375l37.359375-56h37.28125l37.359375 56h-29.359375l37.359375 56zm152 0 37.359375-56h-29.359375l37.359375-56h37.28125l37.359375 56h-29.359375l37.359375 56zm152 0 37.359375-56h-29.359375l37.359375-56h37.28125l37.359375 56h-29.359375l37.359375 56zm0 0" fill="#e6e7e8"/><path d="m40 400h32v80h-32zm0 0" fill="#603913"/><path d="m424 400h32v80h-32zm0 0" fill="#603913"/><path d="m200 8h96v32h-96zm0 0" fill="#cca400"/><path d="m40 8h96v32h-96zm0 0" fill="#cca400"/><path d="m360 8h96v32h-96zm0 0" fill="#cca400"/><path d="m296 216h-96l48-72zm0 0" fill="#ccfc5c"/><path d="m304 272h-112l37.359375-56h37.28125zm0 0" fill="#91cc04"/><path d="m312 328h-128l37.359375-56h53.28125zm0 0" fill="#4e901e"/><path d="m144 216h-96l48-72zm0 0" fill="#ccfc5c"/><path d="m152 272h-112l37.359375-56h37.28125zm0 0" fill="#91cc04"/><path d="m160 328h-128l37.359375-56h53.28125zm0 0" fill="#4e901e"/><path d="m448 216h-96l48-72zm0 0" fill="#ccfc5c"/><path d="m456 272h-112l37.359375-56h37.28125zm0 0" fill="#91cc04"/><path d="m464 328h-128l37.359375-56h53.28125zm0 0" fill="#4e901e"/><g fill="#231f20"><path d="m488 72h-72v-24h40c4.417969 0 8-3.582031 8-8v-32c0-4.417969-3.582031-8-8-8h-96c-4.417969 0-8 3.582031-8 8v32c0 4.417969 3.582031 8 8 8h40v24h-144v-24h40c4.417969 0 8-3.582031 8-8v-32c0-4.417969-3.582031-8-8-8h-96c-4.417969 0-8 3.582031-8 8v32c0 4.417969 3.582031 8 8 8h40v24h-144v-24h40c4.417969 0 8-3.582031 8-8v-32c0-4.417969-3.582031-8-8-8h-96c-4.417969 0-8 3.582031-8 8v32c0 4.417969 3.582031 8 8 8h40v24h-72c-4.417969 0-8 3.582031-8 8v320c0 4.417969 3.582031 8 8 8h24v72c0 4.417969 3.582031 8 8 8h32c4.417969 0 8-3.582031 8-8v-72h336v72c0 4.417969 3.582031 8 8 8h32c4.417969 0 8-3.582031 8-8v-72h24c4.417969 0 8-3.582031 8-8v-320c0-4.417969-3.582031-8-8-8zm-120-40v-16h80v16zm-160 0v-16h80v16zm-160 0v-16h80v16zm16 440h-16v-64h16zm384 0h-16v-64h16zm32-80h-464v-304h464zm0 0"/><path d="m352 120h72c4.417969 0 8-3.582031 8-8s-3.582031-8-8-8h-72c-4.417969 0-8 3.582031-8 8s3.582031 8 8 8zm0 0"/><path d="m448 120h8c4.417969 0 8-3.582031 8-8s-3.582031-8-8-8h-8c-4.417969 0-8 3.582031-8 8s3.582031 8 8 8zm0 0"/><path d="m184 336h56v32c0 4.417969 3.582031 8 8 8s8-3.582031 8-8v-32h56c2.949219 0 5.664062-1.625 7.054688-4.226562 1.390624-2.601563 1.238281-5.757813-.398438-8.214844l-29.054688-43.558594h14.398438c2.949219 0 5.664062-1.625 7.054688-4.226562 1.390624-2.601563 1.238281-5.757813-.398438-8.214844l-29.054688-43.558594h14.398438c2.949219 0 5.664062-1.625 7.054688-4.226562 1.390624-2.601563 1.238281-5.757813-.398438-8.214844l-48-72c-1.570312-2.097656-4.035156-3.332032-6.65625-3.332032s-5.085938 1.234376-6.65625 3.332032l-48 72c-1.636719 2.457031-1.789062 5.613281-.398438 8.214844 1.390626 2.601562 4.105469 4.226562 7.054688 4.226562h14.398438l-29.054688 43.558594c-1.636719 2.457031-1.789062 5.613281-.398438 8.214844 1.390626 2.601562 4.105469 4.226562 7.054688 4.226562h14.398438l-29.054688 43.558594c-1.636719 2.457031-1.789062 5.613281-.398438 8.214844 1.390626 2.601562 4.105469 4.226562 7.054688 4.226562zm64-177.601562 33.054688 49.601562h-66.109376zm-14.398438 65.601562h28.796876l26.691406 40h-82.136719zm-8 56h44.796876l26.691406 40h-98.136719zm0 0"/><path d="m32 336h56v32c0 4.417969 3.582031 8 8 8s8-3.582031 8-8v-32h56c2.949219 0 5.664062-1.625 7.054688-4.226562 1.390624-2.601563 1.238281-5.757813-.398438-8.214844l-29.054688-43.558594h14.398438c2.949219 0 5.664062-1.625 7.054688-4.226562 1.390624-2.601563 1.238281-5.757813-.398438-8.214844l-29.054688-43.558594h14.398438c2.949219 0 5.664062-1.625 7.054688-4.226562 1.390624-2.601563 1.238281-5.757813-.398438-8.214844l-48-72c-1.570312-2.097656-4.035156-3.332032-6.65625-3.332032s-5.085938 1.234376-6.65625 3.332032l-48 72c-1.636719 2.457031-1.789062 5.613281-.398438 8.214844 1.390626 2.601562 4.105469 4.226562 7.054688 4.226562h14.398438l-29.054688 43.558594c-1.636719 2.457031-1.789062 5.613281-.398438 8.214844 1.390626 2.601562 4.105469 4.226562 7.054688 4.226562h14.398438l-29.054688 43.558594c-1.636719 2.457031-1.789062 5.613281-.398438 8.214844 1.390626 2.601562 4.105469 4.226562 7.054688 4.226562zm64-177.601562 33.054688 49.601562h-66.109376zm-14.359375 65.601562h28.757813l26.691406 40h-82.136719zm-8 56h44.757813l26.691406 40h-98.136719zm0 0"/><path d="m336 336h56v32c0 4.417969 3.582031 8 8 8s8-3.582031 8-8v-32h56c2.949219 0 5.664062-1.625 7.054688-4.226562 1.390624-2.601563 1.238281-5.757813-.398438-8.214844l-29.054688-43.558594h14.398438c2.949219 0 5.664062-1.625 7.054688-4.226562 1.390624-2.601563 1.238281-5.757813-.398438-8.214844l-29.054688-43.558594h14.398438c2.949219 0 5.664062-1.625 7.054688-4.226562 1.390624-2.601563 1.238281-5.757813-.398438-8.214844l-48-72c-1.570312-2.097656-4.035156-3.332032-6.65625-3.332032s-5.085938 1.234376-6.65625 3.332032l-48 72c-1.636719 2.457031-1.789062 5.613281-.398438 8.214844 1.390626 2.601562 4.105469 4.226562 7.054688 4.226562h14.398438l-29.054688 43.558594c-1.636719 2.457031-1.789062 5.613281-.398438 8.214844 1.390626 2.601562 4.105469 4.226562 7.054688 4.226562h14.398438l-29.054688 43.558594c-1.636719 2.457031-1.789062 5.613281-.398438 8.214844 1.390626 2.601562 4.105469 4.226562 7.054688 4.226562zm64-177.601562 33.054688 49.601562h-66.109376zm-14.398438 65.601562h28.796876l26.691406 40h-82.136719zm-8 56h44.796876l26.691406 40h-98.136719zm0 0"/></g></svg>