<svg height="497pt" viewBox="0 -45 497.72161 497" width="497pt" xmlns="http://www.w3.org/2000/svg"><path d="m385.722656 232.347656h-96l48-72zm0 0" fill="#ccfc5c"/><path d="m393.722656 288.347656h-112l37.359375-56h37.28125zm0 0" fill="#91cc04"/><path d="m401.722656 344.347656h-128l37.359375-56h53.28125zm0 0" fill="#4e901e"/><path d="m209.722656 232.347656h-96l48-72zm0 0" fill="#ccfc5c"/><path d="m217.722656 288.347656h-112l37.359375-56h37.28125zm0 0" fill="#91cc04"/><path d="m225.722656 344.347656h-128l37.359375-56h53.28125zm0 0" fill="#4e901e"/><path d="m159.433594 73.488281c-2.4375.039063-4.859375.402344-7.199219 1.089844-2.628906-22.117187-20.140625-39.515625-42.277344-41.996094s-43.0625 10.609375-50.523437 31.597657c-5.046875-2.871094-10.746094-4.394532-16.550782-4.433594-12.375-.1875-23.890624 6.304687-30.132812 16.988281-6.242188 10.6875-6.242188 23.90625 0 34.589844 6.242188 10.6875 17.757812 17.179687 30.132812 16.988281h116.550782c9.910156.171875 19.140625-5.019531 24.148437-13.574219 5.003907-8.558593 5.003907-19.148437 0-27.703125-5.007812-8.554687-14.238281-13.746094-24.148437-13.578125zm0 0" fill="#d1d3d4"/><path d="m447.433594 49.488281c-2.4375.039063-4.859375.402344-7.199219 1.089844-2.628906-22.117187-20.140625-39.515625-42.277344-41.996094s-43.0625 10.609375-50.523437 31.597657c-5.046875-2.871094-10.746094-4.394532-16.550782-4.433594-12.375-.1875-23.890624 6.304687-30.132812 16.988281-6.242188 10.6875-6.242188 23.90625 0 34.589844 6.242188 10.6875 17.757812 17.179687 30.132812 16.988281h116.550782c9.910156.171875 19.140625-5.019531 24.148437-13.574219 5.003907-8.558593 5.003907-19.148437 0-27.703125-5.007812-8.554687-14.238281-13.746094-24.148437-13.578125zm0 0" fill="#e6e7e8"/><g fill="#231f20"><path d="m457.722656 392.347656h-112v-40h56c2.949219 0 5.660156-1.625 7.054688-4.226562 1.390625-2.601563 1.238281-5.761719-.398438-8.214844l-29.058594-43.558594h14.402344c2.949219 0 5.660156-1.625 7.054688-4.226562 1.390625-2.601563 1.238281-5.761719-.398438-8.214844l-29.058594-43.558594h14.402344c2.949219 0 5.660156-1.625 7.054688-4.226562 1.390625-2.601563 1.238281-5.761719-.398438-8.214844l-48-72c-1.570312-2.097656-4.039062-3.332031-6.65625-3.332031-2.621094 0-5.085937 1.234375-6.65625 3.332031l-48 72c-1.636718 2.453125-1.792968 5.613281-.398437 8.214844 1.390625 2.601562 4.101562 4.226562 7.054687 4.226562h14.398438l-29.054688 43.558594c-1.636718 2.453125-1.792968 5.613281-.398437 8.214844 1.390625 2.601562 4.101562 4.226562 7.054687 4.226562h14.398438l-29.054688 43.558594c-1.636718 2.453125-1.792968 5.613281-.398437 8.214844 1.390625 2.601562 4.101562 4.226562 7.054687 4.226562h56v40h-160v-40h56c2.949219 0 5.660156-1.625 7.054688-4.226562 1.390625-2.601563 1.238281-5.761719-.398438-8.214844l-29.058594-43.558594h14.402344c2.949219 0 5.660156-1.625 7.054688-4.226562 1.390625-2.601563 1.238281-5.761719-.398438-8.214844l-29.058594-43.558594h14.402344c2.949219 0 5.660156-1.625 7.054688-4.226562 1.390625-2.601563 1.238281-5.761719-.398438-8.214844l-48-72c-1.570312-2.097656-4.039062-3.332031-6.65625-3.332031-2.621094 0-5.085937 1.234375-6.65625 3.332031l-48 72c-1.636718 2.453125-1.792968 5.613281-.398437 8.214844 1.390625 2.601562 4.101562 4.226562 7.054687 4.226562h14.398438l-29.054688 43.558594c-1.636718 2.453125-1.792968 5.613281-.398437 8.214844 1.390625 2.601562 4.101562 4.226562 7.054687 4.226562h14.398438l-29.054688 43.558594c-1.636718 2.453125-1.792968 5.613281-.398437 8.214844 1.390625 2.601562 4.101562 4.226562 7.054687 4.226562h56v40h-144c-4.417968 0-8 3.582032-8 8 0 4.417969 3.582032 8 8 8h448c4.417969 0 8-3.582031 8-8 0-4.417968-3.582031-8-8-8zm-120-217.601562 33.054688 49.601562h-66.113282zm-14.402344 65.601562h28.800782l26.6875 40h-82.136719zm-34.648437 96 26.691406-40h44.757813l26.6875 40zm-126.949219-161.601562 33.054688 49.601562h-66.113282zm-14.402344 65.601562h28.800782l26.6875 40h-82.136719zm-34.648437 96 26.648437-40h44.800782l26.6875 40zm0 0"/><path d="m489.722656 392.347656h-8c-4.417968 0-8 3.582032-8 8 0 4.417969 3.582032 8 8 8h8c4.417969 0 8-3.582031 8-8 0-4.417968-3.582031-8-8-8zm0 0"/><path d="m42.867188 136.347656h116.566406c12.726562-.050781 24.449218-6.925781 30.707031-18.007812 6.257813-11.082032 6.089844-24.671875-.441406-35.59375-6.53125-10.925782-18.421875-17.503906-31.144531-17.238282-6.050782-22.050781-24.90625-38.199218-47.625-40.789062-22.714844-2.585938-44.71875 8.90625-55.574219 29.027344-4.03125-1.304688-8.246094-1.96875-12.480469-1.96875-15.246094-.210938-29.425781 7.800781-37.109375 20.96875-7.6875 13.167968-7.6875 29.453125-.003906 42.625 7.683593 13.167968 21.859375 21.183594 37.105469 20.976562zm0-68.570312c4.445312.035156 8.808593 1.214844 12.671874 3.425781 2.050782 1.136719 4.5 1.3125 6.699219.484375 2.195313-.828125 3.917969-2.578125 4.707031-4.789062 6.222657-17.46875 23.648438-28.363282 42.078126-26.300782 18.429687 2.0625 33.019531 16.535156 35.226562 34.949219.277344 2.3125 1.546875 4.386719 3.480469 5.6875 1.933593 1.296875 4.335937 1.6875 6.582031 1.070313 7.285156-2.03125 15.089844.363281 19.980469 6.132812 4.894531 5.769531 5.980469 13.855469 2.789062 20.714844-3.195312 6.855468-10.085937 11.226562-17.648437 11.195312h-116.566406c-9.5.164063-18.351563-4.808594-23.148438-13.007812-4.800781-8.203125-4.800781-18.351563 0-26.554688 4.796875-8.199218 13.648438-13.171875 23.148438-13.007812zm0 0"/><path d="m446.523438 41.507812c-6.050782-22.050781-24.90625-38.199218-47.625-40.789062-22.714844-2.585938-44.722657 8.90625-55.578126 29.027344-4.03125-1.304688-8.242187-1.96875-12.480468-1.96875-15.242188-.207032-29.421875 7.804687-37.105469 20.972656s-7.683594 29.453125 0 42.625c7.683594 13.167969 21.863281 21.179688 37.105469 20.972656h116.59375c12.726562-.050781 24.449218-6.925781 30.707031-18.007812 6.257813-11.082032 6.089844-24.671875-.441406-35.59375-6.53125-10.925782-18.421875-17.503906-31.144531-17.238282zm.910156 54.839844h-116.566406c-9.5.164063-18.351563-4.808594-23.148438-13.007812-4.800781-8.203125-4.800781-18.351563 0-26.554688 4.796875-8.199218 13.648438-13.171875 23.148438-13.007812 4.445312.035156 8.808593 1.214844 12.671874 3.425781 2.050782 1.136719 4.5 1.3125 6.699219.484375 2.195313-.828125 3.917969-2.578125 4.707031-4.789062 6.222657-17.46875 23.648438-28.363282 42.078126-26.300782 18.429687 2.0625 33.019531 16.535156 35.226562 34.949219.277344 2.3125 1.546875 4.386719 3.480469 5.6875 1.933593 1.296875 4.335937 1.6875 6.582031 1.070313 7.285156-2.03125 15.089844.363281 19.980469 6.132812 4.894531 5.769531 5.980469 13.855469 2.789062 20.714844-3.195312 6.855468-10.085937 11.226562-17.648437 11.195312zm0 0"/></g></svg>