<svg height="496pt" viewBox="0 -4 496 496" width="496pt" xmlns="http://www.w3.org/2000/svg"><path d="m8 80h480v320h-480zm0 0" fill="#e6e7e8"/><path d="m40 400h32v80h-32zm0 0" fill="#603913"/><path d="m424 400h32v80h-32zm0 0" fill="#603913"/><path d="m200 8h96v32h-96zm0 0" fill="#cca400"/><path d="m40 8h96v32h-96zm0 0" fill="#cca400"/><path d="m360 8h96v32h-96zm0 0" fill="#cca400"/><path d="m320 288c0-35.347656-32.234375-64-72-64s-72 28.652344-72 64 32.234375 64 72 64 72-28.652344 72-64zm0 0" fill="#754c29"/><path d="m232 172c0 11.046875-8.953125 20-20 20s-20-8.953125-20-20 8.953125-20 20-20 20 8.953125 20 20zm0 0" fill="#754c29"/><path d="m168 220c0 11.046875-8.953125 20-20 20s-20-8.953125-20-20 8.953125-20 20-20 20 8.953125 20 20zm0 0" fill="#754c29"/><path d="m304 172c0 11.046875-8.953125 20-20 20s-20-8.953125-20-20 8.953125-20 20-20 20 8.953125 20 20zm0 0" fill="#754c29"/><path d="m368 220c0 11.046875-8.953125 20-20 20s-20-8.953125-20-20 8.953125-20 20-20 20 8.953125 20 20zm0 0" fill="#754c29"/><g fill="#231f20"><path d="m488 72h-72v-24h40c4.417969 0 8-3.582031 8-8v-32c0-4.417969-3.582031-8-8-8h-96c-4.417969 0-8 3.582031-8 8v32c0 4.417969 3.582031 8 8 8h40v24h-144v-24h40c4.417969 0 8-3.582031 8-8v-32c0-4.417969-3.582031-8-8-8h-96c-4.417969 0-8 3.582031-8 8v32c0 4.417969 3.582031 8 8 8h40v24h-144v-24h40c4.417969 0 8-3.582031 8-8v-32c0-4.417969-3.582031-8-8-8h-96c-4.417969 0-8 3.582031-8 8v32c0 4.417969 3.582031 8 8 8h40v24h-72c-4.417969 0-8 3.582031-8 8v320c0 4.417969 3.582031 8 8 8h24v72c0 4.417969 3.582031 8 8 8h32c4.417969 0 8-3.582031 8-8v-72h336v72c0 4.417969 3.582031 8 8 8h32c4.417969 0 8-3.582031 8-8v-72h24c4.417969 0 8-3.582031 8-8v-320c0-4.417969-3.582031-8-8-8zm-120-40v-16h80v16zm-160 0v-16h80v16zm-160 0v-16h80v16zm16 440h-16v-64h16zm384 0h-16v-64h16zm32-80h-464v-304h464zm0 0"/><path d="m352 120h72c4.417969 0 8-3.582031 8-8s-3.582031-8-8-8h-72c-4.417969 0-8 3.582031-8 8s3.582031 8 8 8zm0 0"/><path d="m448 120h8c4.417969 0 8-3.582031 8-8s-3.582031-8-8-8h-8c-4.417969 0-8 3.582031-8 8s3.582031 8 8 8zm0 0"/><path d="m168 288c0 39.703125 35.886719 72 80 72s80-32.296875 80-72-35.886719-72-80-72-80 32.296875-80 72zm80-56c35.289062 0 64 25.128906 64 56s-28.710938 56-64 56-64-25.128906-64-56 28.710938-56 64-56zm0 0"/><path d="m212 200c15.464844 0 28-12.535156 28-28s-12.535156-28-28-28-28 12.535156-28 28 12.535156 28 28 28zm0-40c6.628906 0 12 5.371094 12 12s-5.371094 12-12 12-12-5.371094-12-12 5.371094-12 12-12zm0 0"/><path d="m148 248c15.464844 0 28-12.535156 28-28s-12.535156-28-28-28-28 12.535156-28 28 12.535156 28 28 28zm0-40c6.628906 0 12 5.371094 12 12s-5.371094 12-12 12-12-5.371094-12-12 5.371094-12 12-12zm0 0"/><path d="m284 200c15.464844 0 28-12.535156 28-28s-12.535156-28-28-28-28 12.535156-28 28 12.535156 28 28 28zm0-40c6.628906 0 12 5.371094 12 12s-5.371094 12-12 12-12-5.371094-12-12 5.371094-12 12-12zm0 0"/><path d="m348 248c15.464844 0 28-12.535156 28-28s-12.535156-28-28-28-28 12.535156-28 28 12.535156 28 28 28zm0-40c6.628906 0 12 5.371094 12 12s-5.371094 12-12 12-12-5.371094-12-12 5.371094-12 12-12zm0 0"/></g></svg>