<svg height="496pt" viewBox="-8 0 496 496" width="496pt" xmlns="http://www.w3.org/2000/svg"><path d="m384 112v344c0 17.671875-14.328125 32-32 32h-224c-17.671875 0-32-14.328125-32-32v-344zm0 0" fill="#006468"/><path d="m160 224h160v176c0 17.671875-14.328125 32-32 32h-96c-17.671875 0-32-14.328125-32-32zm0 0" fill="#4e901e"/><path d="m96 224v40h-88v-24c.027344-8.824219 7.175781-15.972656 16-16zm0 0" fill="#d1d3d4"/><path d="m8 264h88v152h-88zm0 0" fill="#4e901e"/><path d="m72 48h336v64h-336zm0 0" fill="#414042"/><path d="m128 24h32v112h-32zm0 0" fill="#cca400"/><path d="m320 24h32v112h-32zm0 0" fill="#cca400"/><path d="m384 224v40h88v-24c-.027344-8.824219-7.175781-15.972656-16-16zm0 0" fill="#d1d3d4"/><path d="m384 264h88v152h-88zm0 0" fill="#4e901e"/><path d="m160 224h160v40h-160zm0 0" fill="#d1d3d4"/><g fill="#231f20"><path d="m320 216h-160c-4.417969 0-8 3.582031-8 8v176c0 22.089844 17.910156 40 40 40h96c22.089844 0 40-17.910156 40-40v-176c0-4.417969-3.582031-8-8-8zm-152 16h144v24h-144zm144 168c-.039062 13.238281-10.761719 23.960938-24 24h-96c-13.238281-.039062-23.960938-10.761719-24-24v-128h144zm0 0"/><path d="m456 216h-64v-96h16c4.417969 0 8-3.582031 8-8v-64c0-4.417969-3.582031-8-8-8h-48v-16c0-4.417969-3.582031-8-8-8h-32c-4.417969 0-8 3.582031-8 8v16h-16v-16c-.039062-13.238281-10.761719-23.9609375-24-24h-64c-13.238281.0390625-23.960938 10.761719-24 24v16h-16v-16c0-4.417969-3.582031-8-8-8h-32c-4.417969 0-8 3.582031-8 8v16h-48c-4.417969 0-8 3.582031-8 8v64c0 4.417969 3.582031 8 8 8h16v96h-64c-13.238281.039062-23.9609375 10.761719-24 24v176c0 4.417969 3.582031 8 8 8h80v32c0 22.089844 17.910156 40 40 40h224c22.089844 0 40-17.910156 40-40v-32h80c4.417969 0 8-3.582031 8-8v-176c-.039062-13.238281-10.761719-23.960938-24-24zm0 16c4.417969 0 8 3.582031 8 8v16h-72v-24zm-56-176v48h-40v-48zm-72-24h16v96h-16zm-128-8c0-4.417969 3.582031-8 8-8h64c4.417969 0 8 3.582031 8 8v16h-80zm112 32v48h-144v-48zm-176-24h16v96h-16zm-56 24h40v48h-40zm-64 184c0-4.417969 3.582031-8 8-8h64v24h-72zm0 168v-136h72v136zm360 48c-.039062 13.238281-10.761719 23.960938-24 24h-224c-13.238281-.039062-23.960938-10.761719-24-24v-336h16v16c0 4.417969 3.582031 8 8 8h32c4.417969 0 8-3.582031 8-8v-16h144v16c0 4.417969 3.582031 8 8 8h32c4.417969 0 8-3.582031 8-8v-16h16zm88-48h-72v-136h72zm0 0"/><path d="m200 184c0-4.417969-3.582031-8-8-8h-72c-4.417969 0-8 3.582031-8 8s3.582031 8 8 8h72c4.417969 0 8-3.582031 8-8zm0 0"/><path d="m216 192h16c4.417969 0 8-3.582031 8-8s-3.582031-8-8-8h-16c-4.417969 0-8 3.582031-8 8s3.582031 8 8 8zm0 0"/></g></svg>