<svg height="496pt" viewBox="-64 0 496 496" width="496pt" xmlns="http://www.w3.org/2000/svg"><path d="m40 104h288v352c0 17.671875-14.328125 32-32 32h-224c-17.671875 0-32-14.328125-32-32zm0 0" fill="#d1d3d4"/><path d="m8 40h352v64h-352zm0 0" fill="#808285"/><g fill="#d1d3d4"><path d="m120 8h128v32h-128zm0 0"/><path d="m292 388-200.6875-200.6875"/><path d="m212.9375 218.398438c42.175781 42.175781 56.101562 96.632812 31.109375 121.601562s-79.445313 11.0625-121.597656-31.113281c-42.152344-42.175781-42.449219-132.886719-42.449219-132.886719s90.761719.246094 132.9375 42.398438zm0 0"/><path d="m125.257812 266.511719 33.933594-11.320313 11.320313-33.933594"/><path d="m147.878906 289.136719 33.945313-11.3125 11.3125-33.945313"/><path d="m176.167969 317.425781 33.9375-11.320312 11.320312-33.9375"/><path d="m292 388-200.6875-200.6875"/></g><path d="m212.9375 218.398438c42.175781 42.175781 56.101562 96.632812 31.109375 121.601562s-79.445313 11.0625-121.597656-31.113281c-42.152344-42.175781-42.449219-132.886719-42.449219-132.886719s90.761719.246094 132.9375 42.398438zm0 0" fill="#91cc04"/><path d="m125.257812 266.511719 33.933594-11.320313 11.320313-33.933594" fill="#d1d3d4"/><path d="m147.878906 289.136719 33.945313-11.3125 11.3125-33.945313" fill="#d1d3d4"/><path d="m176.167969 317.425781 33.9375-11.320312 11.320312-33.9375" fill="#d1d3d4"/><path d="m360 32h-104v-24c0-4.417969-3.582031-8-8-8h-128c-4.417969 0-8 3.582031-8 8v24h-104c-4.417969 0-8 3.582031-8 8v64c0 4.417969 3.582031 8 8 8h24v344c.027344 22.082031 17.917969 39.972656 40 40h224c22.082031-.027344 39.972656-17.917969 40-40v-344h24c4.417969 0 8-3.582031 8-8v-64c0-4.417969-3.582031-8-8-8zm-232-16h112v16h-112zm192 440c0 13.253906-10.746094 24-24 24h-224c-13.253906 0-24-10.746094-24-24v-344h272zm32-360h-336v-48h336zm0 0" fill="#231f20"/><path d="m272 448h-64c-4.417969 0-8 3.582031-8 8s3.582031 8 8 8h64c4.417969 0 8-3.582031 8-8s-3.582031-8-8-8zm0 0" fill="#231f20"/><path d="m288 456c0 4.417969 3.582031 8 8 8h8c4.417969 0 8-3.582031 8-8s-3.582031-8-8-8h-8c-4.417969 0-8 3.582031-8 8zm0 0" fill="#231f20"/><path d="m184 56c-4.417969 0-8 3.582031-8 8v16c0 4.417969 3.582031 8 8 8s8-3.582031 8-8v-16c0-4.417969-3.582031-8-8-8zm0 0" fill="#231f20"/><path d="m96 56c-4.417969 0-8 3.582031-8 8v16c0 4.417969 3.582031 8 8 8s8-3.582031 8-8v-16c0-4.417969-3.582031-8-8-8zm0 0" fill="#231f20"/><path d="m264 88c4.417969 0 8-3.582031 8-8v-16c0-4.417969-3.582031-8-8-8s-8 3.582031-8 8v16c0 4.417969 3.582031 8 8 8zm0 0" fill="#231f20"/><path d="m187.695312 357.433594c7.441407 1.964844 15.101563 2.996094 22.800782 3.0625 11.746094.304687 23.296875-3.074219 33.023437-9.664063l42.824219 42.824219c3.140625 3.03125 8.128906 2.988281 11.214844-.097656 3.085937-3.085938 3.128906-8.074219.097656-11.214844l-42.800781-42.800781c21.375-30.191407 6.640625-83.863281-36.261719-126.773438-44.007812-43.96875-134.738281-44.769531-138.59375-44.769531-2.160156-.1875-4.28125.683594-5.679688 2.34375-1.492187 1.503906-2.328124 3.539062-2.320312 5.65625 0 3.839844.800781 94.558594 44.800781 138.566406 19.460938 20.265625 43.910157 35.046875 70.894531 42.867188zm4-15.503906c-24.210937-7.089844-46.136718-20.417969-63.574218-38.648438-27.503906-27.503906-36.121094-78.304688-38.832032-106.714844l55.125 55.128906-21.652343 7.199219c-4.199219 1.398438-6.46875 5.9375-5.070313 10.132813 1.398438 4.199218 5.933594 6.46875 10.132813 5.070312l29.246093-9.746094 9.976563 9.976563-21.664063 7.199219c-4.195312 1.398437-6.464843 5.933594-5.066406 10.132812 1.398438 4.195313 5.933594 6.464844 10.132813 5.066406l29.246093-9.75 15.632813 15.632813-21.664063 7.199219c-3.726562 1.238281-6.003906 5-5.375 8.875.632813 3.878906 3.984376 6.722656 7.910157 6.714844.859375.003906 1.714843-.136719 2.527343-.414063l29.257813-9.746094 23.925781 23.960938c-12.546875 6.117187-26.988281 7.09375-40.246094 2.730469zm51.503907-14.042969-23.941407-23.941407 9.75-29.25c1.394532-4.195312-.875-8.730468-5.070312-10.128906-4.199219-1.394531-8.734375.875-10.128906 5.074219l-7.199219 21.65625-15.632813-15.640625 9.75-29.257812c1.398438-4.195313-.871093-8.730469-5.066406-10.128907-4.199218-1.398437-8.734375.867188-10.132812 5.066407l-7.199219 21.664062-9.984375-9.984375 9.753906-29.246094c1.398438-4.199219-.871094-8.734375-5.070312-10.132812-4.195313-1.398438-8.734375.871093-10.132813 5.066406l-7.199219 21.664063-55.144531-55.144532c28.386719 2.699219 79.203125 11.289063 106.730469 38.839844 34.902344 34.921875 49.726562 79.847656 35.917969 103.824219zm0 0" fill="#231f20"/></svg>