<svg height="496pt" viewBox="0 0 496 496" width="496pt" xmlns="http://www.w3.org/2000/svg"><path d="m295.089844 8h97.820312c8.335938 0 15.089844 6.753906 15.089844 15.089844v32.910156h-128v-32.910156c0-8.335938 6.753906-15.089844 15.089844-15.089844zm0 0" fill="#ffda44"/><path d="m312 56h64v32h-64zm0 0" fill="#d1d3d4"/><path d="m433.863281 488h-179.726562c-16.929688 0-30.929688-13.183594-31.945313-30.078125l-16.085937-268.167969c-1.585938-26.414062 7.800781-52.3125 25.941406-71.574218 18.140625-19.261719 43.429687-30.179688 69.890625-30.179688h84.125c26.460938 0 51.75 10.917969 69.890625 30.179688 18.140625 19.261718 27.527344 45.160156 25.941406 71.574218l-16.085937 268.167969c-1.015625 16.894531-15.015625 30.078125-31.945313 30.078125zm0 0" fill="#4e901e"/><path d="m8 296h176v156.625c0 19.535156-15.839844 35.375-35.375 35.375h-105.25c-19.535156 0-35.375-15.839844-35.375-35.375zm0 0" fill="#cca400"/><g fill="#231f20"><path d="m452.425781 104h3.574219c22.089844 0 40-17.910156 40-40s-17.910156-40-40-40h-40v-.910156c-.011719-12.746094-10.34375-23.0781252-23.089844-23.089844h-97.820312c-12.746094.0117188-23.078125 10.34375-23.089844 23.089844v32.910156c0 4.417969 3.582031 8 8 8h24v16h-2.070312c-28.664063 0-56.058594 11.832031-75.707032 32.699219-19.652344 20.867187-29.820312 48.921875-28.101562 77.53125l16.085937 268.167969c1.296875 21.113281 18.785157 37.578124 39.9375 37.601562h179.710938c21.152343-.023438 38.640625-16.488281 39.9375-37.601562l16.085937-268.175782c1.835938-28.628906-8.347656-56.726562-28.101562-77.527344-2.941406-3.082031-6.066406-5.988281-9.351563-8.695312zm-36.425781-48v-16h40c13.253906 0 24 10.746094 24 24s-10.746094 24-24 24h-29.847656c-12.699219-5.296875-26.320313-8.015625-40.082032-8h-2.070312v-16h24c4.417969 0 8-3.582031 8-8zm-128-8v-24.910156c0-3.917969 3.171875-7.089844 7.089844-7.089844h97.820312c3.917969 0 7.089844 3.171875 7.089844 7.089844v24.910156h-8v-16c0-4.417969-3.582031-8-8-8s-8 3.582031-8 8v16h-24v-16c0-4.417969-3.582031-8-8-8s-8 3.582031-8 8v16h-24v-16c0-4.417969-3.582031-8-8-8s-8 3.582031-8 8v16zm32 16h48v16h-48zm153.910156 125.273438-16.085937 268.167968c-.78125 12.679688-11.296875 22.5625-24 22.558594h-179.679688c-12.703125.003906-23.21875-9.878906-24-22.558594l-16.054687-268.167968c-1.453125-24.210938 7.148437-47.949219 23.777344-65.605469 16.628906-17.65625 39.808593-27.667969 64.0625-27.667969h84.140624c11.652344-.011719 23.1875 2.292969 33.9375 6.777344 10.765626 5.851562 20.863282 12.855468 30.121094 20.886718 16.714844 17.605469 25.332032 41.382813 23.78125 65.609376zm0 0"/><path d="m312 448h-56c-4.417969 0-8 3.582031-8 8s3.582031 8 8 8h56c4.417969 0 8-3.582031 8-8s-3.582031-8-8-8zm0 0"/><path d="m344 448h-8c-4.417969 0-8 3.582031-8 8s3.582031 8 8 8h8c4.417969 0 8-3.582031 8-8s-3.582031-8-8-8zm0 0"/><path d="m32 336h56c4.417969 0 8-3.582031 8-8s-3.582031-8-8-8h-56c-4.417969 0-8 3.582031-8 8s3.582031 8 8 8zm0 0"/><path d="m112 336h8c4.417969 0 8-3.582031 8-8s-3.582031-8-8-8h-8c-4.417969 0-8 3.582031-8 8s3.582031 8 8 8zm0 0"/><path d="m184 288h-176c-4.417969 0-8 3.582031-8 8v156.625c.03125 23.941406 19.433594 43.34375 43.375 43.375h105.25c23.941406-.03125 43.34375-19.433594 43.375-43.375v-156.625c0-4.417969-3.582031-8-8-8zm-8 164.625c-.019531 15.109375-12.265625 27.355469-27.375 27.375h-105.25c-15.109375-.019531-27.355469-12.265625-27.375-27.375v-148.625h160zm0 0"/></g></svg>