<svg height="496pt" viewBox="-88 0 496 496" width="496pt" xmlns="http://www.w3.org/2000/svg"><path d="m312 40v208h-304v-208c0-17.671875 14.328125-32 32-32h240c17.671875 0 32 14.328125 32 32zm0 0" fill="#e6e7e8"/><path d="m312 248v208c0 17.671875-14.328125 32-32 32h-240c-17.671875 0-32-14.328125-32-32v-208zm0 0" fill="#acabb1"/><path d="m40 320h88v88h-88zm0 0" fill="#cca400"/><path d="m232 104c.046875 6.117188-1.734375 12.105469-5.121094 17.199219-6.921875-8.835938-19.042968-11.695313-29.183594-6.878907-10.140624 4.8125-15.589843 16.011719-13.121093 26.960938 2.472656 10.949219 12.199219 18.726562 23.425781 18.71875 2.476562.019531 4.941406-.386719 7.28125-1.199219-3.199219 14.710938-16.222656 25.203125-31.28125 25.199219-2.148438-.011719-4.292969-.226562-6.398438-.640625-5.0625 11.296875-10.945312 22.207031-17.601562 32.640625-6.65625-10.433594-12.539062-21.34375-17.601562-32.640625-2.105469.414063-4.25.628906-6.398438.640625-15.058594.003906-28.082031-10.488281-31.28125-25.199219 2.339844.8125 4.804688 1.21875 7.28125 1.199219 11.226562.007812 20.953125-7.769531 23.425781-18.71875 2.46875-10.949219-2.980469-22.148438-13.121093-26.960938-10.140626-4.816406-22.261719-1.957031-29.183594 6.878907-3.386719-5.09375-5.167969-11.082031-5.121094-17.199219 0-17.671875 14.328125-32 32-32 7.160156.019531 14.101562 2.472656 19.679688 6.960938 5.632812-13.550782 12.433593-26.585938 20.320312-38.960938 7.886719 12.375 14.6875 25.410156 20.320312 38.960938 5.578126-4.488282 12.519532-6.941407 19.679688-6.960938 17.671875 0 32 14.328125 32 32zm0 0" fill="#cca400"/><g fill="#231f20"><path d="m280 0h-240c-22.082031.0273438-39.9726562 17.917969-40 40v416c.0273438 22.082031 17.917969 39.972656 40 40h240c22.082031-.027344 39.972656-17.917969 40-40v-416c-.027344-22.082031-17.917969-39.9726562-40-40zm24 456c0 13.253906-10.746094 24-24 24h-240c-13.253906 0-24-10.746094-24-24v-416c0-13.253906 10.746094-24 24-24h240c13.253906 0 24 10.746094 24 24zm0 0"/><path d="m128 312h-88c-4.417969 0-8 3.582031-8 8v88c0 4.417969 3.582031 8 8 8h88c4.417969 0 8-3.582031 8-8v-88c0-4.417969-3.582031-8-8-8zm-8 88h-72v-72h72zm0 0"/><path d="m168 256c4.417969 0 8-3.582031 8-8s-3.582031-8-8-8h-16c-4.417969 0-8 3.582031-8 8s3.582031 8 8 8zm0 0"/><path d="m192 240c-4.417969 0-8 3.582031-8 8s3.582031 8 8 8h16c4.417969 0 8-3.582031 8-8s-3.582031-8-8-8zm0 0"/><path d="m224 248c0 4.417969 3.582031 8 8 8h16c4.417969 0 8-3.582031 8-8s-3.582031-8-8-8h-16c-4.417969 0-8 3.582031-8 8zm0 0"/><path d="m288 240h-16c-4.417969 0-8 3.582031-8 8s3.582031 8 8 8h16c4.417969 0 8-3.582031 8-8s-3.582031-8-8-8zm0 0"/><path d="m128 240h-16c-4.417969 0-8 3.582031-8 8s3.582031 8 8 8h16c4.417969 0 8-3.582031 8-8s-3.582031-8-8-8zm0 0"/><path d="m72 256h16c4.417969 0 8-3.582031 8-8s-3.582031-8-8-8h-16c-4.417969 0-8 3.582031-8 8s3.582031 8 8 8zm0 0"/><path d="m48 256c4.417969 0 8-3.582031 8-8s-3.582031-8-8-8h-16c-4.417969 0-8 3.582031-8 8s3.582031 8 8 8zm0 0"/><path d="m280 336h-120c-4.417969 0-8 3.582031-8 8s3.582031 8 8 8h120c4.417969 0 8-3.582031 8-8s-3.582031-8-8-8zm0 0"/><path d="m280 368h-120c-4.417969 0-8 3.582031-8 8s3.582031 8 8 8h120c4.417969 0 8-3.582031 8-8s-3.582031-8-8-8zm0 0"/><path d="m232 400h-72c-4.417969 0-8 3.582031-8 8s3.582031 8 8 8h72c4.417969 0 8-3.582031 8-8s-3.582031-8-8-8zm0 0"/><path d="m264 400h-8c-4.417969 0-8 3.582031-8 8s3.582031 8 8 8h8c4.417969 0 8-3.582031 8-8s-3.582031-8-8-8zm0 0"/><path d="m160 224c2.679688-.003906 5.183594-1.347656 6.664062-3.585938 5.847657-9.125 11.101563-18.617187 15.734376-28.414062 19.398437.769531 36.550781-12.5 40.671874-31.472656.621094-2.839844-.351562-5.792969-2.535156-7.710938-2.1875-1.917968-5.238281-2.5-7.976562-1.519531-1.46875.488281-3.011719.726563-4.558594.703125-7.484375.003906-13.972656-5.179688-15.621094-12.480469-1.644531-7.304687 1.992188-14.769531 8.753906-17.976562 6.765626-3.207031 14.847657-1.296875 19.460938 4.601562 1.5625 2.03125 4.019531 3.171875 6.582031 3.046875 2.554688-.09375 4.910157-1.40625 6.335938-3.527344 4.277343-6.410156 6.539062-13.957031 6.488281-21.664062-.027344-22.082031-17.917969-39.972656-40-40-5.515625-.007812-10.96875 1.15625-16 3.40625-5.019531-11.007812-10.816406-21.644531-17.34375-31.832031-1.566406-2.105469-4.039062-3.347657-6.664062-3.347657s-5.097657 1.242188-6.664063 3.347657c-6.523437 10.1875-12.3125 20.828125-17.328125 31.832031-5.03125-2.25-10.484375-3.414062-16-3.40625-22.082031.027344-39.972656 17.917969-40 40-.050781 7.707031 2.210938 15.253906 6.488281 21.664062 1.425781 2.121094 3.78125 3.433594 6.335938 3.527344 2.558593.117188 5.015625-1.019531 6.582031-3.046875 4.613281-5.898437 12.695312-7.808593 19.460938-4.601562 6.761718 3.207031 10.398437 10.671875 8.753906 17.976562-1.648438 7.300781-8.136719 12.484375-15.621094 12.480469-1.5625.015625-3.113281-.234375-4.59375-.734375-2.734375-.980469-5.789062-.398437-7.972656 1.519531-2.183594 1.917969-3.15625 4.871094-2.539063 7.710938 4.160157 18.964844 21.300781 32.234375 40.707031 31.503906 4.640626 9.808594 9.910157 19.3125 15.765626 28.449219 1.480468 2.214843 3.96875 3.546875 6.632812 3.550781zm-17.601562-48.640625c-.503907 0-1.011719.050781-1.511719.144531-1.609375.316406-3.246094.484375-4.886719.496094-7.050781-.023438-13.738281-3.132812-18.304688-8.503906 12.488282-2.285156 22.445313-11.730469 25.378907-24.082032 2.933593-12.351562-1.710938-25.265624-11.835938-32.921874s-23.820312-8.601563-34.902343-2.414063c-.226563-1.347656-.335938-2.710937-.335938-4.078125 0-13.253906 10.746094-24 24-24 5.355469.011719 10.542969 1.855469 14.703125 5.222656 1.964844 1.5625 4.550781 2.113282 6.980469 1.484375 2.433594-.628906 4.425781-2.363281 5.386718-4.683593 3.789063-9.074219 8.105469-17.914063 12.929688-26.480469 4.824219 8.5625 9.140625 17.402343 12.929688 26.472656.960937 2.320313 2.953124 4.054687 5.386718 4.683594 2.429688.628906 5.015625.078125 6.980469-1.484375 4.164063-3.363282 9.351563-5.203125 14.703125-5.214844 13.253906 0 24 10.746094 24 24 0 1.367188-.109375 2.730469-.335938 4.078125-11.082031-6.1875-24.777343-5.242187-34.902343 2.414063s-14.769531 20.570312-11.835938 32.921874c2.933594 12.351563 12.890625 21.796876 25.378907 24.082032-4.566407 5.371094-11.253907 8.480468-18.304688 8.503906-1.640625-.011719-3.277344-.179688-4.886719-.496094-3.640625-.695312-7.28125 1.195313-8.800781 4.574219-3.570312 7.9375-7.273438 14.976563-10.304688 20.378906-3.03125-5.394531-6.726562-12.425781-10.304687-20.378906-1.292969-2.871094-4.152344-4.722656-7.304687-4.71875zm0 0"/></g></svg>