<svg height="496pt" viewBox="0 0 496 496" width="496pt" xmlns="http://www.w3.org/2000/svg"><path d="m352 392-104 96-104-96v-384h208zm0 0" fill="#91cc04"/><path d="m8 24h136v24h-136zm0 0" fill="#603913"/><path d="m352 24h136v24h-136zm0 0" fill="#603913"/><path d="m320 224c.046875 6.117188-1.734375 12.105469-5.121094 17.199219-6.921875-8.835938-19.042968-11.695313-29.183594-6.878907-10.140624 4.8125-15.589843 16.011719-13.121093 26.960938 2.472656 10.949219 12.199219 18.726562 23.425781 18.71875 2.476562.019531 4.941406-.386719 7.28125-1.199219-3.199219 14.710938-16.222656 25.203125-31.28125 25.199219-2.148438-.011719-4.292969-.226562-6.398438-.640625-5.0625 11.296875-10.945312 22.207031-17.601562 32.640625-6.65625-10.433594-12.539062-21.34375-17.601562-32.640625-2.105469.414063-4.25.628906-6.398438.640625-15.058594.003906-28.082031-10.488281-31.28125-25.199219 2.339844.8125 4.804688 1.21875 7.28125 1.199219 11.226562.007812 20.953125-7.769531 23.425781-18.71875 2.46875-10.949219-2.980469-22.148438-13.121093-26.960938-10.140626-4.816406-22.261719-1.957031-29.183594 6.878907-3.386719-5.09375-5.167969-11.082031-5.121094-17.199219 0-17.671875 14.328125-32 32-32 7.160156.019531 14.101562 2.472656 19.679688 6.960938 5.632812-13.550782 12.433593-26.585938 20.320312-38.960938 7.886719 12.375 14.6875 25.410156 20.320312 38.960938 5.578126-4.488282 12.519532-6.941407 19.679688-6.960938 17.671875 0 32 14.328125 32 32zm0 0" fill="#cca400"/><g fill="#231f20"><path d="m488 16h-128v-8c0-4.417969-3.582031-8-8-8h-208c-4.417969 0-8 3.582031-8 8v8h-128c-4.417969 0-8 3.582031-8 8v24c0 4.417969 3.582031 8 8 8h128v336c0 2.234375.933594 4.367188 2.574219 5.878906l104 96c3.066406 2.828125 7.785156 2.828125 10.851562 0l104-96c1.640625-1.511718 2.574219-3.644531 2.574219-5.878906v-336h128c4.417969 0 8-3.582031 8-8v-24c0-4.417969-3.582031-8-8-8zm-472 24v-8h120v8zm328 348.496094-96 88.617187-96-88.617187v-372.496094h192zm136-348.496094h-120v-8h120zm0 0"/><path d="m288 184c-5.515625-.007812-10.96875 1.15625-16 3.40625-5.019531-11.007812-10.816406-21.644531-17.34375-31.832031-1.566406-2.105469-4.039062-3.347657-6.664062-3.347657s-5.097657 1.242188-6.664063 3.347657c-6.523437 10.1875-12.3125 20.828125-17.328125 31.832031-5.03125-2.25-10.484375-3.414062-16-3.40625-22.082031.027344-39.972656 17.917969-40 40-.050781 7.707031 2.210938 15.253906 6.488281 21.664062 1.425781 2.121094 3.78125 3.433594 6.335938 3.527344 2.5625.125 5.019531-1.015625 6.582031-3.046875 4.613281-5.898437 12.695312-7.808593 19.460938-4.601562 6.761718 3.207031 10.398437 10.671875 8.753906 17.976562-1.648438 7.300781-8.136719 12.484375-15.621094 12.480469-1.5625.015625-3.113281-.234375-4.59375-.734375-2.734375-.980469-5.789062-.398437-7.972656 1.519531-2.183594 1.917969-3.15625 4.871094-2.539063 7.710938 4.175781 18.957031 21.308594 32.21875 40.707031 31.503906 4.640626 9.808594 9.910157 19.3125 15.765626 28.449219 1.484374 2.230469 3.984374 3.574219 6.664062 3.574219s5.183594-1.34375 6.664062-3.574219c5.835938-9.140625 11.082032-18.640625 15.703126-28.449219 19.390624.738281 36.523437-12.519531 40.671874-31.472656.621094-2.839844-.351562-5.792969-2.535156-7.710938-2.1875-1.917968-5.238281-2.5-7.976562-1.519531-1.46875.488281-3.011719.726563-4.558594.703125-7.484375.003906-13.972656-5.179688-15.621094-12.480469-1.644531-7.304687 1.992188-14.769531 8.753906-17.976562 6.765626-3.207031 14.847657-1.296875 19.460938 4.601562 1.554688 2.039063 4.019531 3.179688 6.582031 3.046875 2.554688-.09375 4.910157-1.40625 6.335938-3.527344 4.277343-6.410156 6.539062-13.957031 6.488281-21.664062-.027344-22.082031-17.917969-39.972656-40-40zm23.664062 44.078125c-11.082031-6.1875-24.777343-5.242187-34.902343 2.414063s-14.769531 20.570312-11.835938 32.921874c2.933594 12.351563 12.890625 21.796876 25.378907 24.082032-4.566407 5.371094-11.253907 8.480468-18.304688 8.503906-1.640625-.011719-3.277344-.179688-4.886719-.496094-3.640625-.695312-7.28125 1.195313-8.800781 4.574219-3.570312 7.9375-7.273438 14.976563-10.304688 20.378906-3.03125-5.394531-6.726562-12.425781-10.304687-20.378906-1.289063-2.871094-4.144531-4.71875-7.296875-4.71875-.503906 0-1.011719.050781-1.511719.144531-1.613281.316406-3.25.484375-4.894531.496094-7.050781-.023438-13.738281-3.132812-18.304688-8.503906 12.488282-2.285156 22.445313-11.730469 25.378907-24.082032 2.933593-12.351562-1.710938-25.265624-11.835938-32.921874s-23.820312-8.601563-34.902343-2.414063c-.226563-1.347656-.335938-2.710937-.335938-4.078125 0-13.253906 10.746094-24 24-24 5.355469.011719 10.542969 1.855469 14.703125 5.222656 1.964844 1.5625 4.550781 2.113282 6.980469 1.484375 2.433594-.628906 4.425781-2.363281 5.386718-4.683593 3.789063-9.074219 8.105469-17.914063 12.929688-26.480469 4.824219 8.5625 9.140625 17.402343 12.929688 26.472656.960937 2.320313 2.953124 4.054687 5.386718 4.683594 2.429688.628906 5.015625.078125 6.980469-1.484375 4.164063-3.363282 9.351563-5.203125 14.703125-5.214844 13.253906 0 24 10.746094 24 24 0 1.367188-.109375 2.730469-.335938 4.078125zm0 0"/><path d="m216 48c4.417969 0 8-3.582031 8-8s-3.582031-8-8-8h-48c-4.417969 0-8 3.582031-8 8s3.582031 8 8 8zm0 0"/><path d="m240 48h8c4.417969 0 8-3.582031 8-8s-3.582031-8-8-8h-8c-4.417969 0-8 3.582031-8 8s3.582031 8 8 8zm0 0"/></g></svg>