<svg height="496pt" viewBox="0 -4 496 496" width="496pt" xmlns="http://www.w3.org/2000/svg"><path d="m8 80h480v320h-480zm0 0" fill="#e6e7e8"/><path d="m40 400h32v80h-32zm0 0" fill="#603913"/><path d="m424 400h32v80h-32zm0 0" fill="#603913"/><g fill="#d1d3d4"><path d="m356 348-200.6875-200.6875"/><path d="m276.9375 178.398438c42.175781 42.175781 56.101562 96.632812 31.109375 121.601562s-79.445313 11.0625-121.597656-31.113281c-42.152344-42.175781-42.449219-132.886719-42.449219-132.886719s90.761719.246094 132.9375 42.398438zm0 0"/><path d="m189.257812 226.511719 33.933594-11.320313 11.320313-33.933594"/><path d="m211.878906 249.136719 33.945313-11.3125 11.3125-33.945313"/><path d="m240.167969 277.425781 33.9375-11.320312 11.320312-33.9375"/><path d="m356 348-200.6875-200.6875"/></g><path d="m276.9375 178.398438c42.175781 42.175781 56.101562 96.632812 31.109375 121.601562s-79.445313 11.0625-121.597656-31.113281c-42.152344-42.175781-42.449219-132.886719-42.449219-132.886719s90.761719.246094 132.9375 42.398438zm0 0" fill="#91cc04"/><path d="m200 8h96v32h-96zm0 0" fill="#cca400"/><path d="m40 8h96v32h-96zm0 0" fill="#cca400"/><path d="m360 8h96v32h-96zm0 0" fill="#cca400"/><path d="m376 368 8 8" fill="#d1d3d4"/><path d="m488 72h-72v-24h40c4.417969 0 8-3.582031 8-8v-32c0-4.417969-3.582031-8-8-8h-96c-4.417969 0-8 3.582031-8 8v32c0 4.417969 3.582031 8 8 8h40v24h-144v-24h40c4.417969 0 8-3.582031 8-8v-32c0-4.417969-3.582031-8-8-8h-96c-4.417969 0-8 3.582031-8 8v32c0 4.417969 3.582031 8 8 8h40v24h-144v-24h40c4.417969 0 8-3.582031 8-8v-32c0-4.417969-3.582031-8-8-8h-96c-4.417969 0-8 3.582031-8 8v32c0 4.417969 3.582031 8 8 8h40v24h-72c-4.417969 0-8 3.582031-8 8v320c0 4.417969 3.582031 8 8 8h24v72c0 4.417969 3.582031 8 8 8h32c4.417969 0 8-3.582031 8-8v-72h336v72c0 4.417969 3.582031 8 8 8h32c4.417969 0 8-3.582031 8-8v-72h24c4.417969 0 8-3.582031 8-8v-320c0-4.417969-3.582031-8-8-8zm-120-40v-16h80v16zm-160 0v-16h80v16zm-160 0v-16h80v16zm16 440h-16v-64h16zm384 0h-16v-64h16zm32-80h-464v-304h464zm0 0" fill="#231f20"/><path d="m251.695312 317.433594c7.441407 1.964844 15.101563 2.996094 22.800782 3.0625 11.746094.304687 23.296875-3.074219 33.023437-9.664063l42.824219 42.824219c3.140625 3.03125 8.128906 2.988281 11.214844-.097656 3.085937-3.085938 3.128906-8.074219.097656-11.214844l-42.800781-42.800781c21.375-30.191407 6.640625-83.863281-36.261719-126.773438-44.007812-43.96875-134.738281-44.769531-138.59375-44.769531-2.101562.128906-4.097656.953125-5.679688 2.34375-1.492187 1.503906-2.328124 3.539062-2.320312 5.65625 0 3.839844.800781 94.558594 44.800781 138.566406 19.460938 20.265625 43.910157 35.046875 70.894531 42.867188zm19.585938-133.355469c34.902344 34.90625 49.726562 79.832031 35.917969 103.808594l-23.941407-23.941407 9.75-29.25c1.394532-4.195312-.875-8.730468-5.070312-10.128906-4.199219-1.394531-8.734375.875-10.128906 5.074219l-7.199219 21.65625-15.632813-15.640625 9.75-29.257812c1.398438-4.195313-.871093-8.730469-5.066406-10.128907-4.199218-1.398437-8.734375.867188-10.132812 5.066407l-7.199219 21.664062-9.984375-9.984375 9.753906-29.246094c1.398438-4.199219-.871094-8.734375-5.070312-10.132812-4.195313-1.398438-8.734375.871093-10.132813 5.066406l-7.199219 21.664063-55.144531-55.144532c28.386719 2.714844 79.175781 11.304688 106.730469 38.855469zm-62.898438 27.617187-21.65625 7.199219c-4.195312 1.398438-6.464843 5.9375-5.066406 10.132813 1.398438 4.199218 5.933594 6.46875 10.132813 5.070312l29.246093-9.746094 9.976563 9.976563-21.664063 7.199219c-4.195312 1.398437-6.464843 5.933594-5.066406 10.132812 1.398438 4.195313 5.933594 6.464844 10.128906 5.066406l29.25-9.75 15.632813 15.632813-21.664063 7.199219c-3.726562 1.238281-6.003906 5-5.375 8.875.628907 3.878906 3.980469 6.722656 7.910157 6.714844.859375.003906 1.714843-.136719 2.527343-.414063l29.257813-9.746094 23.949219 23.960938c-12.546875 6.105469-26.984375 7.078125-40.238282 2.703125-24.210937-7.085938-46.136718-20.414063-63.574218-38.644532-27.503906-27.503906-36.121094-78.304687-38.832032-106.714843zm0 0" fill="#231f20"/><path d="m381.65625 362.34375c-3.140625-3.03125-8.128906-2.988281-11.214844.097656-3.085937 3.085938-3.128906 8.074219-.097656 11.214844l8 8c3.140625 3.03125 8.128906 2.988281 11.214844-.097656 3.085937-3.085938 3.128906-8.074219.097656-11.214844zm0 0" fill="#231f20"/><path d="m352 120h72c4.417969 0 8-3.582031 8-8s-3.582031-8-8-8h-72c-4.417969 0-8 3.582031-8 8s3.582031 8 8 8zm0 0" fill="#231f20"/><path d="m448 120h8c4.417969 0 8-3.582031 8-8s-3.582031-8-8-8h-8c-4.417969 0-8 3.582031-8 8s3.582031 8 8 8zm0 0" fill="#231f20"/></svg>