<svg height="496pt" viewBox="-184 0 496 496" width="496pt" xmlns="http://www.w3.org/2000/svg"><path d="m24 8h16c35.347656 0 64 28.652344 64 64v224h-80zm0 0" fill="#d1d3d4"/><path d="m8 296h112v32h-112zm0 0" fill="#cca400"/><path d="m24 328h80v160h-80zm0 0" fill="#ab2300"/><g fill="#231f20"><path d="m120 288h-8v-216c-.046875-39.746094-32.253906-71.953125-72-72h-16c-4.417969 0-8 3.582031-8 8v280h-8c-4.417969 0-8 3.582031-8 8v32c0 4.417969 3.582031 8 8 8h8v152c0 4.417969 3.582031 8 8 8h80c4.417969 0 8-3.582031 8-8v-152h8c4.417969 0 8-3.582031 8-8v-32c0-4.417969-3.582031-8-8-8zm-88-272h8c30.914062.035156 55.964844 25.085938 56 56v216h-64zm64 336h-32c-4.417969 0-8 3.582031-8 8s3.582031 8 8 8h32v16h-16c-4.417969 0-8 3.582031-8 8s3.582031 8 8 8h16v16h-32c-4.417969 0-8 3.582031-8 8s3.582031 8 8 8h32v16h-32c-4.417969 0-8 3.582031-8 8s3.582031 8 8 8h32v16h-64v-144h64zm16-32h-96v-16h96zm0 0"/><path d="m48 80c-4.417969 0-8 3.582031-8 8v16c0 4.417969 3.582031 8 8 8s8-3.582031 8-8v-16c0-4.417969-3.582031-8-8-8zm0 0"/><path d="m48 120c-4.417969 0-8 3.582031-8 8v136c0 4.417969 3.582031 8 8 8s8-3.582031 8-8v-136c0-4.417969-3.582031-8-8-8zm0 0"/><path d="m48 400h8c4.417969 0 8-3.582031 8-8s-3.582031-8-8-8h-8c-4.417969 0-8 3.582031-8 8s3.582031 8 8 8zm0 0"/></g></svg>