<svg height="496pt" viewBox="-104 0 496 496" width="496pt" xmlns="http://www.w3.org/2000/svg"><path d="m48 56h192v32h-192zm0 0" fill="#d80027"/><path d="m280 248c0 68.640625-27.761719 128.480469-68.960938 160h-134.078124c-41.199219-31.519531-68.960938-91.359375-68.960938-160s27.761719-128.480469 68.960938-160h134.078124c41.199219 31.519531 68.960938 91.359375 68.960938 160zm0 0" fill="#c2dff6"/><path d="m264 440v48h-240v-48c0-17.671875 14.328125-32 32-32h176c17.671875 0 32 14.328125 32 32zm0 0" fill="#d80027"/><path d="m104 32h80v24h-80zm0 0" fill="#cca400"/><path d="m144 384c-48.601562 0-80-31.398438-80-80 0-45.441406 46.945312-99.199219 56.351562-109.558594l23.648438-25.945312 23.648438 25.945312c9.40625 10.359375 56.351562 64.117188 56.351562 109.558594 0 48.601562-31.398438 80-80 80zm0 0" fill="#ff9811"/><path d="m192 312c0 35.34375-21.488281 48-48 48s-48-12.65625-48-48 48-88 48-88 48 52.65625 48 88zm0 0" fill="#ffeb99"/><g fill="#231f20"><path d="m248 88v-8h32c4.417969 0 8-3.582031 8-8v-64c0-4.417969-3.582031-8-8-8h-272c-4.417969 0-8 3.582031-8 8v64c0 4.417969 3.582031 8 8 8h32v8c0 4.417969 3.582031 8 8 8h8c-34.945312 35.945312-56 92.121094-56 152s21.0625 116.054688 56 152c-22.082031.027344-39.972656 17.917969-40 40v48c0 4.417969 3.582031 8 8 8h240c4.417969 0 8-3.582031 8-8v-48c-.027344-22.082031-17.917969-39.972656-40-40 34.945312-35.945312 56-92.121094 56-152s-21.0625-116.054688-56-152h8c4.417969 0 8-3.582031 8-8zm-232-24v-48h256v48h-24v-8c0-4.417969-3.582031-8-8-8h-48v-16c0-4.417969-3.582031-8-8-8h-80c-4.417969 0-8 3.582031-8 8v16h-48c-4.417969 0-8 3.582031-8 8v8zm160-16h-64v-8h64zm80 392v40h-224v-40c0-13.253906 10.746094-24 24-24h176c13.253906 0 24 10.746094 24 24zm16-192c0 62.648438-24.425781 120.550781-63.832031 152h-128.335938c-39.40625-31.449219-63.832031-89.351562-63.832031-152s24.425781-120.550781 63.832031-152h128.335938c39.40625 31.449219 63.832031 89.351562 63.832031 152zm-40-168h-176v-16h176zm0 0"/><path d="m56 304c0 52.640625 35.359375 88 88 88s88-35.359375 88-88c0-48.382812-48.679688-104.238281-58.398438-114.953125l-23.648437-25.933594c-1.554687-1.59375-3.6875-2.492187-5.914063-2.492187-2.222656 0-4.355468.898437-5.910156 2.492187l-23.648437 25.933594c-9.800781 10.714844-58.480469 66.570313-58.480469 114.953125zm88-123.625 17.734375 19.457031c5.554687 6.097657 54.265625 60.785157 54.265625 104.167969 0 44.40625-27.59375 72-72 72s-72-27.59375-72-72c0-43.382812 48.710938-98.070312 54.265625-104.167969zm0 0"/><path d="m144 368c35.59375 0 56-20.40625 56-56 0-38.007812-48.039062-91.144531-50.089844-93.390625-1.554687-1.59375-3.683594-2.492187-5.910156-2.492187s-4.355469.898437-5.910156 2.492187c-2.050782 2.246094-50.089844 55.382813-50.089844 93.390625 0 35.59375 20.40625 56 56 56zm0-131.792969c14.9375 17.9375 40 52.800781 40 75.792969 0 26.542969-13.457031 40-40 40s-40-13.457031-40-40c0-22.96875 25.0625-57.855469 40-75.792969zm0 0"/><path d="m168 456c-4.417969 0-8 3.582031-8 8s3.582031 8 8 8h40c4.417969 0 8-3.582031 8-8s-3.582031-8-8-8zm0 0"/><path d="m232 472h8c4.417969 0 8-3.582031 8-8s-3.582031-8-8-8h-8c-4.417969 0-8 3.582031-8 8s3.582031 8 8 8zm0 0"/></g></svg>