<svg height="496pt" viewBox="0 -64 496.005 496" width="496pt" xmlns="http://www.w3.org/2000/svg"><path d="m424.003906 280.003906-176-224-176 224v80h352zm0 0" fill="#4e901e"/><path d="m384.003906 360.003906h-272v-40c59.753906-45.957031 106.605469-106.585937 136-176 22.679688 73.488282 70.503906 128.359375 136 176zm0 0" fill="#00665a"/><path d="m136.003906 56.003906c-.042968 23.375-16.921875 43.320313-39.964844 47.234375-23.046874 3.910157-45.558593-9.34375-53.316406-31.394531 5.832032 5.269531 13.417969 8.179688 21.28125 8.160156 17.671875 0 32-14.328125 32-32 0-17.675781-14.328125-32-32-32-.910156-.027344-1.820312.027344-2.722656.160156 7.882812-5.351562 17.195312-8.195312 26.722656-8.160156 26.507813 0 48 21.488282 48 48zm0 0" fill="#ffda44"/><g fill="#231f20"><path d="m494.28125 355.042969-240-304c-1.574219-1.828125-3.867188-2.878907-6.277344-2.878907-2.414062 0-4.707031 1.050782-6.28125 2.878907l-240 304c-2.738281 3.46875-2.148437 8.5 1.320313 11.238281 3.46875 2.742188 8.5 2.148438 11.238281-1.320312l49.722656-62.980469v58.023437c0 4.417969 3.582032 8 8 8h352c4.417969 0 8-3.582031 8-8v-58.023437l49.71875 62.980469c2.738282 3.46875 7.773438 4.0625 11.238282 1.320312 3.46875-2.738281 4.0625-7.769531 1.320312-11.238281zm-374.277344-3.039063v-28.121094c53.886719-42.324218 97.339844-96.453124 127.015625-158.214843 22.976563 59.933593 64.4375 110.765625 128.984375 158.390625v27.945312zm296 0h-24v-32c0-2.5625-1.226562-4.96875-3.296875-6.472656-70.402343-51.199219-112.671875-105.816406-133.054687-171.886719-.992188-3.214843-3.886719-5.46875-7.242188-5.640625-3.359375-.167968-6.46875 1.78125-7.777344 4.878906-28.945312 68.109376-74.941406 127.621094-133.558593 172.800782-1.945313 1.519531-3.078125 3.851562-3.070313 6.320312v32h-24v-69.234375l168-213.816406 168 213.816406zm0 0"/><path d="m88.003906 112.003906c30.925782 0 56-25.074218 56-56 0-30.929687-25.074218-55.99999975-56-55.99999975-11.121094-.02734375-21.996094 3.29687475-31.203125 9.53515575-3.0625 2.101563-4.246093 6.054688-2.847656 9.496094 1.441406 3.457032 5.039063 5.5 8.746094 4.96875.433593-.027344.867187-.027344 1.304687 0 13.253906 0 24 10.742188 24 24 0 13.253906-10.746094 24-24 24-5.882812.007813-11.558594-2.167968-15.929687-6.105468-2.714844-2.398438-6.707031-2.667969-9.722657-.664063-3.015624 2.007813-4.308593 5.792969-3.148437 9.222656 7.816406 22.476563 29.003906 37.542969 52.800781 37.546875zm-24-24c17.214844 0 32.5-11.019531 37.945313-27.351562 5.445312-16.335938-.171875-34.320313-13.945313-44.648438 17.402344 0 32.808594 11.25 38.101563 27.832032 5.296875 16.578124-.738281 34.675781-14.921875 44.765624-14.179688 10.085938-33.257813 9.84375-47.179688-.597656zm0 0"/><path d="m8.003906 336.003906c4.417969 0 8-3.582031 8-8v-24c0-4.417968-3.582031-8-8-8-4.417968 0-7.99999975 3.582032-7.99999975 8v24c0 4.417969 3.58203175 8 7.99999975 8zm0 0"/><path d="m2.324219 285.683594 1.199219.960937c.445312.300781.929687.542969 1.4375.71875.453124.230469.941406.390625 1.441406.480469.527344.089844 1.0625.144531 1.601562.160156 1.042969-.015625 2.078125-.230468 3.039063-.640625.96875-.40625 1.863281-.976562 2.640625-1.679687.722656-.765625 1.292968-1.660156 1.679687-2.640625.410157-.960938.625-1.996094.640625-3.039063-.019531-.539062-.074218-1.070312-.160156-1.601562-.089844-.5-.25-.988282-.480469-1.441406-.175781-.507813-.417969-.992188-.722656-1.4375l-.957031-1.199219c-.777344-.707031-1.671875-1.277344-2.640625-1.679688-1.460938-.640625-3.082031-.808593-4.640625-.480469-.5.085938-.988282.246094-1.441406.480469-.507813.171875-.992188.414063-1.4375.71875l-1.199219.960938-.960938 1.199219c-.304687.445312-.546875.929687-.722656 1.4375-.230469.453124-.390625.941406-.476563 1.441406-.0898432.53125-.1445308 1.0625-.16015575 1.601562.01171875 1.042969.23046875 2.078125.63671875 3.039063.386719.980469.957031 1.875 1.683594 2.640625zm0 0"/></g></svg>