<svg height="496pt" viewBox="0 -104 496 496" width="496pt" xmlns="http://www.w3.org/2000/svg"><path d="m32 8h200c79.527344 0 144 64.472656 144 144v80h-344zm0 0" fill="#ebbf00"/><path d="m224 72h80v160h-80zm0 0" fill="#00665a"/><path d="m64 72h120v64h-120zm0 0" fill="#1a6fb0"/><path d="m176 232c0 26.507812-21.492188 48-48 48s-48-21.492188-48-48 21.492188-48 48-48 48 21.492188 48 48zm0 0" fill="#414042"/><path d="m152 232c0 13.253906-10.746094 24-24 24s-24-10.746094-24-24 10.746094-24 24-24 24 10.746094 24 24zm0 0" fill="#d1d3d4"/><g fill="#231f20"><path d="m488 272h-8c-4.417969 0-8 3.582031-8 8s3.582031 8 8 8h8c4.417969 0 8-3.582031 8-8s-3.582031-8-8-8zm0 0"/><path d="m192 136v-64c0-4.417969-3.582031-8-8-8h-120c-4.417969 0-8 3.582031-8 8v64c0 4.417969 3.582031 8 8 8h120c4.417969 0 8-3.582031 8-8zm-16-8h-104v-48h104zm0 0"/><path d="m64 48h40c4.417969 0 8-3.582031 8-8s-3.582031-8-8-8h-40c-4.417969 0-8 3.582031-8 8s3.582031 8 8 8zm0 0"/><path d="m128 48h8c4.417969 0 8-3.582031 8-8s-3.582031-8-8-8h-8c-4.417969 0-8 3.582031-8 8s3.582031 8 8 8zm0 0"/><path d="m456 240c4.417969 0 8-3.582031 8-8s-3.582031-8-8-8h-72v-72c-.074219-83.917969-68.082031-151.9257812-152-152h-200c-4.417969 0-8 3.582031-8 8v224c0 4.417969 3.582031 8 8 8h40.640625c1.703125 12.175781 7.417969 23.4375 16.238281 32h-80.878906c-4.417969 0-8 3.582031-8 8s3.582031 8 8 8h448c4.417969 0 8-3.582031 8-8s-3.582031-8-8-8h-24v-32zm-416-224h192c75.066406.105469 135.894531 60.933594 136 136v72h-56v-152c0-4.417969-3.582031-8-8-8h-80c-4.417969 0-8 3.582031-8 8v152h-32.640625c-3.953125-27.535156-27.542969-47.976562-55.359375-47.976562s-51.40625 20.441406-55.359375 47.976562h-32.640625zm256 208h-64v-144h64zm-207.199219 16c-1.066406-5.28125-1.066406-10.71875 0-16 3.785157-18.644531 20.175781-32.039062 39.199219-32.039062s35.414062 13.394531 39.199219 32.039062c1.066406 5.28125 1.066406 10.71875 0 16-3.785157 18.644531-20.175781 32.039062-39.199219 32.039062s-35.414062-13.394531-39.199219-32.039062zm327.199219 32h-248.878906c8.820312-8.5625 14.535156-19.824219 16.238281-32h232.640625zm0 0"/><path d="m160 232c.023438-2.703125-.324219-5.394531-1.039062-8-3.683594-14.082031-16.40625-23.90625-30.960938-23.90625s-27.277344 9.824219-30.960938 23.90625c-1.386718 5.242188-1.386718 10.757812 0 16 3.683594 14.082031 16.40625 23.90625 30.960938 23.90625s27.277344-9.824219 30.960938-23.90625c.714843-2.605469 1.0625-5.296875 1.039062-8zm-32 16c-7.242188.007812-13.589844-4.851562-15.46875-11.847656s1.175781-14.378906 7.445312-18.003906c6.269532-3.625 14.195313-2.585938 19.316407 2.535156 5.125 5.121094 6.167969 13.042968 2.546875 19.316406-2.855469 4.945312-8.128906 7.996094-13.839844 8zm0 0"/></g></svg>