<svg height="496pt" viewBox="-8 0 496 496" width="496pt" xmlns="http://www.w3.org/2000/svg"><path d="m64 32h352v48h-352zm0 0" fill="#414042"/><path d="m96 80h288v408h-288zm0 0" fill="#00665a"/><path d="m224 8h32v96h-32zm0 0" fill="#cca400"/><path d="m160 200h160v208h-160zm0 0" fill="#4e901e"/><path d="m24 296h72v192h-88v-176c0-8.835938 7.164062-16 16-16zm0 0" fill="#4e901e"/><path d="m384 296h72c8.835938 0 16 7.164062 16 16v176h-88zm0 0" fill="#4e901e"/><path d="m160 200h160v40h-160zm0 0" fill="#d1d3d4"/><g fill="#231f20"><path d="m320 192h-160c-4.417969 0-8 3.582031-8 8v208c0 4.417969 3.582031 8 8 8h160c4.417969 0 8-3.582031 8-8v-208c0-4.417969-3.582031-8-8-8zm-152 16h144v24h-144zm144 192h-144v-152h144zm0 0"/><path d="m456 288h-64v-200h24c4.417969 0 8-3.582031 8-8v-48c0-4.417969-3.582031-8-8-8h-152v-16c0-4.417969-3.582031-8-8-8h-32c-4.417969 0-8 3.582031-8 8v16h-152c-4.417969 0-8 3.582031-8 8v48c0 4.417969 3.582031 8 8 8h24v200h-64c-13.238281.039062-23.9609375 10.761719-24 24v176c0 4.417969 3.582031 8 8 8h464c4.417969 0 8-3.582031 8-8v-176c-.039062-13.238281-10.761719-23.960938-24-24zm-48-248v32h-144v-32zm-176-24h16v80h-16zm-160 24h144v32h-144zm-56 272c0-4.417969 3.582031-8 8-8h64v176h-72zm88-224h112v16c0 4.417969 3.582031 8 8 8h32c4.417969 0 8-3.582031 8-8v-16h112v392h-272zm360 392h-72v-176h64c4.417969 0 8 3.582031 8 8zm0 0"/><path d="m192 144c0-4.417969-3.582031-8-8-8h-64c-4.417969 0-8 3.582031-8 8s3.582031 8 8 8h64c4.417969 0 8-3.582031 8-8zm0 0"/><path d="m208 152h8c4.417969 0 8-3.582031 8-8s-3.582031-8-8-8h-8c-4.417969 0-8 3.582031-8 8s3.582031 8 8 8zm0 0"/></g></svg>