<svg height="495pt" viewBox="-47 0 495 495.94207" width="495pt" xmlns="http://www.w3.org/2000/svg"><path d="m40.472656 407.941406h320c17.671875 0 32 14.328125 32 32v16c0 17.671875-14.328125 32-32 32h-320c-17.675781 0-32-14.328125-32-32v-16c0-17.671875 14.324219-32 32-32zm0 0" fill="#d1d3d4"/><path d="m248.472656 55.941406c0 26.511719-21.492187 48-48 48-26.511718 0-48-21.488281-48-48 0-26.507812 21.488282-48 48-48 26.507813 0 48 21.492188 48 48zm0 0" fill="#cca400"/><path d="m192.472656 55.941406h16c88.363282 0 160 71.636719 160 160v192h-336v-192c0-88.363281 71.632813-160 160-160zm0 0" fill="#d80027"/><path d="m340.109375 233.398438c.0625 7.78125-2.210937 15.40625-6.519531 21.886718-8.8125-11.246094-24.242188-14.878906-37.148438-8.746094-12.90625 6.132813-19.835937 20.390626-16.683594 34.324219 3.152344 13.9375 15.546876 23.824219 29.832032 23.808594 3.160156.019531 6.296875-.496094 9.28125-1.53125-4.078125 18.726563-20.652344 32.074219-39.816406 32.074219-2.734376-.007813-5.460938-.277344-8.144532-.800782-6.453125 14.371094-13.953125 28.253907-22.4375 41.527344-8.472656-13.28125-15.960937-27.167968-22.402344-41.542968-2.683593.523437-5.410156.792968-8.144531.800781-19.15625.003906-35.730469-13.339844-39.816406-32.058594 2.984375 1.035156 6.117187 1.550781 9.273437 1.53125 14.289063.015625 26.679688-9.871094 29.832032-23.808594 3.152344-13.933593-3.777344-28.191406-16.683594-34.324219-12.902344-6.132812-28.335938-2.5-37.148438 8.746094-4.308593-6.480468-6.578124-14.105468-6.519531-21.886718-.003906-22.496094 18.234375-40.734376 40.726563-40.726563 9.105468.03125 17.925781 3.160156 25.015625 8.871094 7.167969-17.253907 15.824219-33.847657 25.867187-49.601563 10.039063 15.753906 18.695313 32.347656 25.863282 49.601563 7.101562-5.710938 15.933593-8.835938 25.046874-8.855469 22.488282-.003906 40.722657 18.222656 40.726563 40.710938zm0 0" fill="#cca400"/><g fill="#231f20"><path d="m376.472656 403.222656v-187.28125c-.082031-74.285156-48.898437-139.71875-120.082031-160.960937-.515625-30.511719-25.398437-54.980469-55.917969-54.980469-30.519531 0-55.40625 24.46875-55.921875 54.980469-71.183593 21.242187-119.996093 86.675781-120.078125 160.960937v187.28125c-14.558594 6.417969-23.964844 20.8125-24 36.71875v16c0 22.09375 17.90625 40 40 40h320c22.089844 0 40-17.90625 40-40v-16c-.039062-15.90625-9.445312-30.300781-24-36.71875zm-176-387.28125c20.167969-.03125 37.175782 15.019532 39.597656 35.039063-10.410156-2.027344-20.992187-3.046875-31.597656-3.039063h-16c-10.609375-.007812-21.191406 1.011719-31.601562 3.039063 2.421875-20.019531 19.429687-35.070313 39.601562-35.039063zm-160 200c.050782-66.234375 42.953125-124.824218 106.078125-144.878906 15.089844-3.605469 30.445313-5.984375 45.921875-7.121094h16c15.472656 1.136719 30.828125 3.515625 45.917969 7.121094 63.128906 20.054688 106.027344 78.644531 106.082031 144.878906v184h-320zm344 240c-.042968 13.238282-10.761718 23.960938-24 24h-320c-13.238281-.039062-23.960937-10.761718-24-24v-16c.039063-13.238281 10.761719-23.960937 24-24h320c13.238282.039063 23.957032 10.761719 24 24zm0 0"/><path d="m200.472656 439.941406c-4.417968 0-8 3.582032-8 8v16c0 4.417969 3.582032 8 8 8 4.417969 0 8-3.582031 8-8v-16c0-4.417968-3.582031-8-8-8zm0 0"/><path d="m112.472656 439.941406c-4.417968 0-8 3.582032-8 8v16c0 4.417969 3.582032 8 8 8 4.417969 0 8-3.582031 8-8v-16c0-4.417968-3.582031-8-8-8zm0 0"/><path d="m280.472656 439.941406c-4.417968 0-8 3.582032-8 8v16c0 4.417969 3.582032 8 8 8 4.417969 0 8-3.582031 8-8v-16c0-4.417968-3.582031-8-8-8zm0 0"/><path d="m299.351562 184.660156c-7.425781-.003906-14.746093 1.75-21.359374 5.121094-6.566407-14.628906-14.214844-28.746094-22.882813-42.238281-1.550781-2.113281-4.015625-3.363281-6.636719-3.363281-2.625 0-5.089844 1.25-6.640625 3.363281-8.667969 13.492187-16.316406 27.609375-22.882812 42.238281-6.613281-3.371094-13.933594-5.125-21.359375-5.121094-26.898438.019532-48.699219 21.820313-48.71875 48.722656-.058594 9.382813 2.667968 18.570313 7.839844 26.398438 1.425781 2.113281 3.773437 3.421875 6.320312 3.519531 2.582031.15625 5.070312-.984375 6.640625-3.039062 6.496094-8.289063 17.871094-10.964844 27.382813-6.441407 9.511718 4.519532 14.617187 15.03125 12.289062 25.300782-2.324219 10.273437-11.460938 17.558594-21.992188 17.539062-2.226562 0-4.441406-.351562-6.558593-1.039062-2.722657-.972656-5.753907-.390625-7.921875 1.519531-2.214844 1.886719-3.199219 4.84375-2.558594 7.679687 4.929688 22.359376 24.703125 38.3125 47.597656 38.402344 1.121094 0 2.242188-.082031 3.359375-.160156 6.007813 12.875 12.875 25.332031 20.5625 37.28125 1.460938 2.246094 3.957031 3.601562 6.640625 3.601562 2.679688 0 5.175782-1.355468 6.636719-3.601562 7.6875-11.949219 14.558594-24.40625 20.5625-37.28125 24.132813 1.703125 45.847656-14.59375 50.960937-38.242188.636719-2.835937-.347656-5.792968-2.5625-7.679687-2.164062-1.910156-5.199218-2.492187-7.917968-1.519531-2.121094.6875-4.332032 1.039062-6.5625 1.039062-10.578125.066406-19.777344-7.230468-22.128906-17.542968-2.351563-10.3125 2.777343-20.875 12.339843-25.402344 9.558594-4.527344 20.980469-1.804688 27.46875 6.546875 1.582031 2.042969 4.0625 3.179687 6.640625 3.039062 2.546875-.097656 4.894532-1.40625 6.320313-3.519531 5.171875-7.828125 7.898437-17.015625 7.839843-26.398438-.015624-26.902343-21.820312-48.703124-48.71875-48.722656zm31.597657 57.363282c-13.402344-8.933594-30.945313-8.589844-43.988281.863281-13.042969 9.449219-18.832032 26.011719-14.519532 41.53125s17.820313 26.71875 33.871094 28.085937c-6.066406 9.152344-16.300781 14.675782-27.28125 14.71875-2.226562-.027344-4.449219-.242187-6.640625-.640625-3.632813-.699219-7.273437 1.1875-8.800781 4.558594-5.359375 11.839844-10.957032 22.160156-15.117188 29.441406-4.160156-7.28125-9.761718-17.519531-15.121094-29.441406-1.257812-2.890625-4.125-4.75-7.28125-4.71875-.511718-.023437-1.023437.03125-1.519531.160156-2.191406.398438-4.414062.613281-6.640625.640625-10.980468-.042968-21.214844-5.566406-27.277344-14.71875 16.058594-1.355468 29.582032-12.554687 33.902344-28.082031 4.320313-15.53125-1.472656-32.105469-14.527344-41.558594-13.054687-9.453125-30.613281-9.789062-44.015624-.839843-.78125-2.8125-1.160157-5.722657-1.121094-8.640626.042968-18.054687 14.667968-32.675781 32.71875-32.722656 7.304687.042969 14.382812 2.554688 20.082031 7.121094 1.953125 1.570312 4.527344 2.132812 6.960937 1.519531 2.417969-.65625 4.398438-2.398437 5.359376-4.71875 5.382812-12.796875 11.554687-25.246093 18.480468-37.28125 6.921875 12.035157 13.09375 24.484375 18.476563 37.28125.960937 2.320313 2.941406 4.0625 5.363281 4.71875 2.429688.613281 5.003906.050781 6.957031-1.519531 5.699219-4.566406 12.777344-7.078125 20.082031-7.121094 18.050782.046875 32.675782 14.667969 32.71875 32.722656.039063 2.917969-.339843 5.828126-1.121093 8.640626zm0 0"/><path d="m144.472656 359.941406h-72c-4.417968 0-8 3.582032-8 8 0 4.417969 3.582032 8 8 8h72c4.417969 0 8-3.582031 8-8 0-4.417968-3.582031-8-8-8zm0 0"/><path d="m184.472656 359.941406h-16c-4.417968 0-8 3.582032-8 8 0 4.417969 3.582032 8 8 8h16c4.417969 0 8-3.582031 8-8 0-4.417968-3.582031-8-8-8zm0 0"/></g></svg>