<svg height="496pt" viewBox="0 -84 496 496" width="496pt" xmlns="http://www.w3.org/2000/svg"><path d="m336 266.910156v52.800782h-144v-52.800782l72-91.199218zm0 0" fill="#4e901e"/><path d="m312 295.710938h-96l48-72zm0 0" fill="#00665a"/><path d="m184 127.710938c0 39.761718-32.234375 72-72 72s-72-32.238282-72-72c0-39.765626 32.234375-72 72-72s72 32.234374 72 72zm0 0" fill="#91cc04"/><path d="m112 127.710938-24-24" fill="#d1d3d4"/><path d="m112 151.710938 24-24" fill="#d1d3d4"/><path d="m488 95.710938c0 48.597656-39.398438 88-88 88s-88-39.402344-88-88c0-48.601563 39.398438-88 88-88s88 39.398437 88 88zm0 0" fill="#b2fa09"/><path d="m400 95.710938-24-24" fill="#d1d3d4"/><path d="m400 119.710938 24-24" fill="#d1d3d4"/><path d="m80 239.710938c0 17.671874-14.328125 32-32 32s-32-14.328126-32-32c0-17.675782 14.328125-32 32-32s32 14.324218 32 32zm0 0" fill="#b2fa09"/><path d="m48 239.710938 64 24" fill="#d1d3d4"/><path d="m440 79.710938 8-8" fill="#d1d3d4"/><g fill="#231f20"><path d="m270.65625 219.269531c-1.570312-2.097656-4.035156-3.332031-6.65625-3.332031s-5.085938 1.234375-6.65625 3.332031l-48 72c-1.636719 2.453125-1.789062 5.613281-.398438 8.214844 1.390626 2.601563 4.105469 4.226563 7.054688 4.226563h96c2.949219 0 5.664062-1.625 7.054688-4.226563 1.390624-2.601563 1.238281-5.761719-.398438-8.214844zm-39.710938 68.441407 33.054688-49.601563 33.054688 49.601563zm0 0"/><path d="m488 311.710938h-8c-4.417969 0-8 3.582031-8 8 0 4.417968 3.582031 8 8 8h8c4.417969 0 8-3.582032 8-8 0-4.417969-3.582031-8-8-8zm0 0"/><path d="m408.902344 191.292969c51.074218-4.789063 89.324218-48.933594 86.792968-100.164063-2.53125-51.234375-44.945312-91.394531-96.238281-91.128906-51.296875.269531-93.289062 40.867188-95.285156 92.125-1.996094 51.253906 36.710937 95 87.828125 99.257812v120.328126h-10.398438l-111.320312-140.960938c-1.574219-1.828125-3.867188-2.878906-6.28125-2.878906s-4.707031 1.050781-6.28125 2.878906l-111.320312 140.960938h-26.398438v-104.410157c42.414062-4.261719 74.035156-41.03125 71.898438-83.601562-2.132813-42.574219-37.273438-75.996094-79.898438-75.996094s-77.765625 33.421875-79.898438 75.996094c-2.136718 42.570312 29.484376 79.339843 71.898438 83.601562v44.863281l-16.632812-6.238281c.378906-2.050781.589843-4.128906.632812-6.214843.152344-20.105469-14.535156-37.242188-34.421875-40.175782s-38.894531 9.234375-44.554687 28.527344c-5.660157 19.289062 3.761718 39.800781 22.082031 48.074219 18.320312 8.277343 39.9375 1.785156 50.671875-15.210938l22.222656 8.328125v42.457032h-96c-4.417969 0-8 3.582031-8 8 0 4.417968 3.582031 8 8 8h448c4.417969 0 8-3.582032 8-8 0-4.417969-3.582031-8-8-8h-48v-120.378907c.304688-.023437.601562-.007812.902344-.039062zm-360.902344 72.417969c-13.253906 0-24-10.746094-24-24 0-13.257813 10.746094-24 24-24s24 10.742187 24 24c0 .152343-.039062.285156-.039062.4375l-21.144532-7.933594c-4.140625-1.546875-8.75.554687-10.296875 4.695312s.554688 8.75 4.695313 10.296875l21.074218 7.894531c-4.519531 5.4375-11.21875 8.589844-18.289062 8.609376zm0-136c-.027344-34.316407 27.011719-62.542969 61.292969-63.996094 34.28125-1.449219 63.609375 24.394531 66.480469 58.585937 2.875 34.195313-21.730469 64.566407-55.773438 68.855469v-36.136719l21.65625-21.652343c3.03125-3.140626 2.988281-8.128907-.097656-11.214844-3.085938-3.085938-8.074219-3.128906-11.214844-.097656l-10.34375 10.34375v-4.6875c-.011719-2.125-.855469-4.160157-2.351562-5.664063l-24-24c-3.140626-3.035156-8.128907-2.988281-11.214844.097656-3.085938 3.085938-3.128906 8.074219-.097656 11.210938l21.664062 21.664062v60.136719c-31.96875-4.054688-55.945312-31.222656-56-63.445312zm313.175781 184h-17.175781v-21.761719zm-177.175781-21.761719v21.761719h-17.175781zm16 21.761719v-42.027344l64-81.0625 64 81.0625v42.027344zm148.921875-154.402344c-24.902344-20.660156-34.910156-54.285156-25.351563-85.195313 9.554688-30.914062 36.789063-53.023437 69.003907-56.027343 2.535156-.230469 5.058593-.347657 7.570312-.351563 42.429688.304687 77.238281 33.683594 79.324219 76.0625s-29.277344 79.015625-71.46875 83.488281v-52.265625l21.65625-21.652343c3.03125-3.140626 2.988281-8.128907-.097656-11.214844-3.085938-3.085938-8.074219-3.128906-11.214844-.097656l-10.34375 10.34375v-4.6875c-.011719-2.125-.855469-4.160157-2.351562-5.664063l-24-24c-3.140626-3.035156-8.128907-2.988281-11.214844.097656-3.085938 3.085938-3.128906 8.074219-.097656 11.210938l21.664062 21.664062v76.28125c-15.839844-1.542969-30.847656-7.8125-43.078125-17.992187zm0 0"/><path d="m440 87.710938c2.121094-.003907 4.15625-.84375 5.65625-2.34375l8-8c3.03125-3.140626 2.988281-8.128907-.097656-11.214844-3.085938-3.085938-8.074219-3.128906-11.214844-.097656l-8 8c-2.285156 2.285156-2.972656 5.726562-1.734375 8.714843s4.15625 4.9375 7.390625 4.941407zm0 0"/></g></svg>