<svg height="496pt" viewBox="-99 0 496 496" width="496pt" xmlns="http://www.w3.org/2000/svg"><path d="m97.15625 8h97.824219c8.332031 0 15.085937 6.753906 15.085937 15.089844v32.910156h-128v-32.910156c0-8.335938 6.753906-15.089844 15.089844-15.089844zm0 0" fill="#ffda44"/><path d="m114.066406 56h64v32h-64zm0 0" fill="#d1d3d4"/><path d="m235.929688 488h-179.726563c-16.929687 0-30.929687-13.183594-31.945313-30.078125l-16.085937-268.167969c-1.585937-26.414062 7.800781-52.3125 25.941406-71.574218 18.140625-19.261719 43.429688-30.179688 69.890625-30.179688h84.128906c26.457032 0 51.746094 10.917969 69.886719 30.179688 18.140625 19.261718 27.527344 45.160156 25.941407 71.574218l-16.085938 268.167969c-1.015625 16.894531-15.015625 30.078125-31.945312 30.078125zm0 0" fill="#4e901e"/><g fill="#231f20"><path d="m254.492188 104h3.574218c22.09375 0 40-17.910156 40-40s-17.90625-40-40-40h-40v-.910156c-.011718-12.746094-10.34375-23.0781252-23.085937-23.089844h-97.824219c-12.746094.0117188-23.074219 10.34375-23.089844 23.089844v32.910156c0 4.417969 3.582032 8 8 8h24v16h-2.070312c-28.664063 0-56.058594 11.832031-75.707032 32.699219-19.652343 20.867187-29.820312 48.921875-28.101562 77.53125l16.085938 268.167969c1.296874 21.113281 18.785156 37.578124 39.9375 37.601562h179.710937c21.152344-.023438 38.640625-16.488281 39.9375-37.601562l16.085937-268.175782c1.839844-28.628906-8.347656-56.726562-28.101562-77.527344-2.941406-3.082031-6.0625-5.988281-9.351562-8.695312zm-36.425782-48v-16h40c13.253906 0 24 10.746094 24 24s-10.746094 24-24 24h-29.847656c-12.699219-5.296875-26.320312-8.015625-40.078125-8h-2.074219v-16h24c4.417969 0 8-3.582031 8-8zm-128-8v-24.910156c0-3.917969 3.175782-7.089844 7.089844-7.089844h97.824219c3.914062 0 7.085937 3.171875 7.085937 7.089844v24.910156h-8v-16c0-4.417969-3.582031-8-8-8-4.417968 0-8 3.582031-8 8v16h-24v-16c0-4.417969-3.582031-8-8-8-4.417968 0-8 3.582031-8 8v16h-24v-16c0-4.417969-3.582031-8-8-8-4.417968 0-8 3.582031-8 8v16zm32 16h48v16h-48zm153.914063 125.273438-16.089844 268.167968c-.78125 12.679688-11.296875 22.5625-24 22.558594h-179.679687c-12.703126.003906-23.21875-9.878906-24-22.558594l-16.054688-268.167968c-1.453125-24.210938 7.148438-47.949219 23.777344-65.605469s39.808594-27.667969 64.0625-27.667969h84.144531c12.15625 1.222656 24.144531 3.757812 35.757813 7.558594 33.507812 14.945312 54.253906 49.085937 52.082031 85.714844zm0 0"/><path d="m114.066406 448h-56c-4.417968 0-8 3.582031-8 8s3.582032 8 8 8h56c4.417969 0 8-3.582031 8-8s-3.582031-8-8-8zm0 0"/><path d="m146.066406 448h-8c-4.417968 0-8 3.582031-8 8s3.582032 8 8 8h8c4.417969 0 8-3.582031 8-8s-3.582031-8-8-8zm0 0"/></g></svg>