<svg height="496pt" viewBox="-152 0 496 496" width="496pt" xmlns="http://www.w3.org/2000/svg"><path d="m8 440h176v48h-176zm0 0" fill="#cca400"/><path d="m168 392v48h-144v-48c0-17.671875 14.328125-32 32-32h80c17.671875 0 32 14.328125 32 32zm0 0" fill="#d80027"/><path d="m144 40v16h-96v-16c0-17.671875 14.328125-32 32-32h32c17.671875 0 32 14.328125 32 32zm0 0" fill="#cca400"/><path d="m48 56v304h96v-304zm48 56c-8.835938 0-16-7.164062-16-16s7.164062-16 16-16 16 7.164062 16 16c-.027344 8.824219-7.175781 15.972656-16 16zm0 0" fill="#ab2300"/><path d="m112 96c0 8.835938-7.164062 16-16 16s-16-7.164062-16-16 7.164062-16 16-16 16 7.164062 16 16zm0 0" fill="#d1d3d4"/><path d="m112 96c0 8.835938-7.164062 16-16 16s-16-7.164062-16-16 7.164062-16 16-16 16 7.164062 16 16zm0 0" fill="#ffda44"/><g fill="#231f20"><path d="m184 432h-8v-40c-.019531-15.886719-9.441406-30.253906-24-36.609375v-315.390625c-.027344-22.082031-17.917969-39.9726562-40-40h-32c-22.082031.0273438-39.972656 17.917969-40 40v315.390625c-14.558594 6.355469-23.980469 20.722656-24 36.609375v40h-8c-4.417969 0-8 3.582031-8 8v48c0 4.417969 3.582031 8 8 8h176c4.417969 0 8-3.582031 8-8v-48c0-4.417969-3.582031-8-8-8zm-128-392c0-13.253906 10.746094-24 24-24h32c13.253906 0 24 10.746094 24 24v8h-80zm0 24h80v288h-80zm-24 328c0-13.253906 10.746094-24 24-24h80c13.253906 0 24 10.746094 24 24v40h-128zm144 88h-160v-32h160zm0 0"/><path d="m96 72c-13.253906 0-24 10.746094-24 24s10.746094 24 24 24 24-10.746094 24-24-10.746094-24-24-24zm0 32c-4.417969 0-8-3.582031-8-8s3.582031-8 8-8 8 3.582031 8 8-3.582031 8-8 8zm0 0"/><path d="m96 376c-4.417969 0-8 3.582031-8 8v32c0 4.417969 3.582031 8 8 8s8-3.582031 8-8v-32c0-4.417969-3.582031-8-8-8zm0 0"/><path d="m64 376c-4.417969 0-8 3.582031-8 8v32c0 4.417969 3.582031 8 8 8s8-3.582031 8-8v-32c0-4.417969-3.582031-8-8-8zm0 0"/><path d="m128 376c-4.417969 0-8 3.582031-8 8v32c0 4.417969 3.582031 8 8 8s8-3.582031 8-8v-32c0-4.417969-3.582031-8-8-8zm0 0"/><path d="m96 128c-4.417969 0-8 3.582031-8 8v40c0 4.417969 3.582031 8 8 8s8-3.582031 8-8v-40c0-4.417969-3.582031-8-8-8zm0 0"/><path d="m96 192c-4.417969 0-8 3.582031-8 8v8c0 4.417969 3.582031 8 8 8s8-3.582031 8-8v-8c0-4.417969-3.582031-8-8-8zm0 0"/></g></svg>