<svg height="492pt" viewBox="0 0 492 492.0101" width="492pt" xmlns="http://www.w3.org/2000/svg"><g fill="#d1d3d4"><path d="m220.003906 220.011719-200.6875-200.691407"/><path d="m140.941406 50.410156c42.175782 42.175782 56.105469 96.632813 31.113282 121.601563-24.992188 24.964843-79.449219 11.0625-121.601563-31.113281-42.152344-42.175782-42.449219-132.886719-42.449219-132.886719s90.761719.246093 132.9375 42.398437zm0 0"/><path d="m53.261719 98.523438 33.933593-11.320313 11.320313-33.9375"/><path d="m75.886719 121.144531 33.941406-11.308593 11.3125-33.945313"/><path d="m104.171875 149.433594 33.9375-11.320313 11.320313-33.933593"/><path d="m220.003906 220.011719-200.6875-200.691407"/></g><path d="m140.941406 50.410156c42.175782 42.175782 56.105469 96.632813 31.113282 121.601563-24.992188 24.964843-79.449219 11.0625-121.601563-31.113281-42.152344-42.175782-42.449219-132.886719-42.449219-132.886719s90.761719.246093 132.9375 42.398437zm0 0" fill="#4e901e"/><path d="m272.003906 272.011719 200.6875 200.6875" fill="#d1d3d4"/><path d="m351.070312 441.609375c-42.175781-42.175781-56.105468-96.632813-31.113281-121.597656 24.992188-24.96875 79.449219-11.066407 121.601563 31.109375 42.152344 42.175781 42.445312 132.890625 42.445312 132.890625s-90.757812-.25-132.933594-42.402344zm0 0" fill="#4e901e"/><path d="m220.003906 272.011719-200.6875 200.6875" fill="#d1d3d4"/><path d="m50.40625 351.074219c42.175781-42.175781 96.628906-56.105469 121.597656-31.113281 24.96875 24.992187 11.066406 79.449218-31.109375 121.601562s-132.890625 42.449219-132.890625 42.449219.25-90.761719 42.402344-132.9375zm0 0" fill="#d1d3d4"/><path d="m98.515625 438.753906-11.320313-33.9375-33.933593-11.316406" fill="#d1d3d4"/><path d="m121.140625 416.128906-11.3125-33.941406-33.941406-11.3125" fill="#d1d3d4"/><path d="m149.429688 387.84375-11.320313-33.9375-33.9375-11.320312" fill="#d1d3d4"/><path d="m220.003906 272.011719-200.6875 200.6875" fill="#d1d3d4"/><path d="m50.40625 351.074219c42.175781-42.175781 96.628906-56.105469 121.597656-31.113281 24.96875 24.992187 11.066406 79.449218-31.109375 121.601562s-132.890625 42.449219-132.890625 42.449219.25-90.761719 42.402344-132.9375zm0 0" fill="#c2fb3b"/><path d="m272.003906 220.011719 200.6875-200.691407" fill="#d1d3d4"/><path d="m441.605469 140.945312c-42.175781 42.175782-96.632813 56.105469-121.601563 31.113282-24.96875-24.992188-11.0625-79.449219 31.113282-121.601563 42.175781-42.152343 132.886718-42.445312 132.886718-42.445312s-.246094 90.757812-42.398437 132.933593zm0 0" fill="#c2fb3b"/><path d="m240.003906 240.011719 8 8" fill="#d1d3d4"/><path d="m182.851562 171.546875c9.921876-14.023437 12.296876-33.496094 6.585938-55.839844-7.8125-26.980469-22.585938-51.433593-42.839844-70.898437-44.007812-44-134.730468-44.7968752-138.59375-44.7968752-2.148437-.1171878-4.234375.7460932-5.679687 2.3437502-1.492188 1.503906-2.324219 3.535156-2.32031275 5.65625 0 3.839843.80078175 94.558593 44.80078175 138.566406 19.472656 20.257813 43.933593 35.03125 70.929687 42.839844 7.441406 1.96875 15.101563 2.996093 22.796875 3.0625 11.75.308593 23.296875-3.070313 33.027344-9.664063l42.824218 42.824219c3.136719 3.035156 8.125 2.988281 11.210938-.097656 3.085938-3.085938 3.132812-8.074219.097656-11.210938zm-8.917968-51.871094c4.367187 13.253907 3.398437 27.691407-2.703125 40.246094l-23.960938-24 9.742188-29.253906c1.398437-4.199219-.875-8.734375-5.070313-10.128907-4.199218-1.398437-8.730468.875-10.128906 5.070313l-7.199219 21.664063-15.640625-15.640626 9.761719-29.222656c1.398437-4.199218-.871094-8.734375-5.070313-10.132812-4.195312-1.398438-8.734374.871094-10.132812 5.070312l-7.199219 21.664063-9.976562-9.960938 9.746093-29.257812c1.398438-4.195313-.871093-8.734375-5.070312-10.132813-4.195312-1.394531-8.730469.871094-10.128906 5.070313l-7.203125 21.664062-55.140625-55.144531c28.382812 2.695312 79.199218 11.296875 106.726562 38.839844 18.230469 17.441406 31.558594 39.371094 38.648438 63.585937zm-54.265625 54.261719c-24.214844-7.089844-46.140625-20.417969-63.582031-38.648438-27.496094-27.503906-36.082032-78.3125-38.824219-106.710937l55.128906 55.128906-21.664063 7.199219c-4.199218 1.398438-6.46875 5.933594-5.070312 10.132812 1.398438 4.195313 5.933594 6.464844 10.132812 5.066407l29.257813-9.742188 9.972656 9.976563-21.664062 7.199218c-4.195313 1.398438-6.464844 5.933594-5.066407 10.132813 1.398438 4.195313 5.933594 6.464844 10.132813 5.066406l29.246094-9.753906 15.640625 15.640625-21.664063 7.199219c-3.726562 1.238281-6.003906 5-5.375 8.875.628907 3.875 3.976563 6.722656 7.902344 6.71875.859375.003906 1.714844-.136719 2.527344-.414063l29.257812-9.746094 24 23.960938c-12.5625 6.125-27.015625 7.097656-40.289062 2.71875zm0 0" fill="#231f20"/><path d="m376.308594 302.578125c-22.34375-5.710937-41.816406-3.328125-55.839844 6.582031l-42.808594-42.804687c-3.136718-3.03125-8.128906-2.988281-11.214844.097656-3.085937 3.085937-3.128906 8.074219-.097656 11.214844l42.808594 42.804687c-9.917969 14.027344-12.296875 33.496094-6.582031 55.839844 7.8125 26.984375 22.585937 51.433594 42.839843 70.898438 44 44 134.726563 44.757812 138.566407 44.800781 4.417969 0 8-3.582031 8-8 0-3.839844-.800781-94.5625-44.800781-138.570313-19.453126-20.257812-43.894532-35.039062-70.871094-42.863281zm-4 15.503906c24.226562 7.085938 46.164062 20.414063 63.617187 38.648438 27.496094 27.503906 36.121094 78.3125 38.824219 106.710937l-55.128906-55.128906 21.664062-7.199219c4.199219-1.398437 6.464844-5.933593 5.066406-10.132812-1.398437-4.195313-5.933593-6.464844-10.128906-5.066407l-29.257812 9.742188-9.976563-9.972656 21.664063-7.203125c4.199218-1.398438 6.46875-5.933594 5.070312-10.128907-1.398437-4.199218-5.9375-6.46875-10.132812-5.070312l-29.25 9.753906-15.640625-15.640625 21.664062-7.199219c4.199219-1.398437 6.46875-5.933593 5.074219-10.128906-1.398438-4.199218-5.929688-6.46875-10.128906-5.074218l-29.253906 9.746093-23.953126-23.929687c12.546876-6.113282 26.984376-7.089844 40.238282-2.726563zm-54.261719 54.265625c-4.371094-13.257812-3.402344-27.695312 2.703125-40.25l23.960938 23.960938-9.746094 29.253906c-1.394532 4.199219.875 8.734375 5.070312 10.128906 4.199219 1.398438 8.734375-.875 10.128906-5.070312l7.199219-21.664063 15.640625 15.640625-9.726562 29.261719c-1.398438 4.195313.871094 8.726563 5.0625 10.121094.816406.277343 1.667968.417969 2.527344.414062 3.445312.003907 6.503906-2.203125 7.59375-5.46875l7.199218-21.664062 9.976563 9.972656-9.742188 29.257813c-1.398437 4.199218.871094 8.734374 5.066407 10.132812 4.199218 1.398438 8.734374-.871094 10.132812-5.070312l7.199219-21.664063 55.144531 55.144531c-28.382812-2.695312-79.199219-11.296875-106.726562-38.839844-18.230469-17.449218-31.550782-39.378906-38.632813-63.597656zm0 0" fill="#231f20"/><path d="m214.347656 266.355469-42.804687 42.804687c-14.027344-9.910156-33.496094-12.292968-55.84375-6.582031-26.980469 7.8125-51.429688 22.585937-70.894531 42.839844-44 44.007812-44.80078175 134.726562-44.80078175 138.59375 0 4.417969 3.58203175 8 7.99999975 8 3.839844 0 94.5625-.800781 138.570313-44.800781 20.257812-19.472657 35.03125-43.9375 42.839843-70.929688 5.710938-22.34375 3.335938-41.816406-6.585937-55.839844l42.808594-42.808594c3.03125-3.136718 2.988281-8.128906-.097657-11.214843-3.085937-3.085938-8.074218-3.128907-11.214843-.097657zm-158.261718 90.375c17.441406-18.230469 39.367187-31.558594 63.582031-38.648438 13.253906-4.367187 27.691406-3.394531 40.242187 2.703125l-23.953125 23.960938-29.257812-9.742188c-4.195313-1.398437-8.730469.871094-10.125 5.070313-1.398438 4.195312.875 8.730469 5.070312 10.128906l21.664063 7.199219-15.640625 15.640625-29.261719-9.761719c-4.199219-1.398438-8.734375.871094-10.132812 5.070312-1.398438 4.195313.871093 8.730469 5.066406 10.128907l21.664062 7.203125-9.957031 9.972656-29.257813-9.742188c-4.199218-1.398437-8.734374.871094-10.132812 5.066407-1.398438 4.199219.871094 8.734375 5.070312 10.132812l21.664063 7.199219-55.144531 55.144531c2.695312-28.382812 11.296875-79.175781 38.839844-106.726562zm117.847656 15.617187c-7.089844 24.214844-20.417969 46.140625-38.648438 63.582032-27.503906 27.496093-78.3125 36.121093-106.710937 38.824218l55.125-55.128906 7.203125 21.664062c1.398437 4.199219 5.933594 6.46875 10.128906 5.070313 4.199219-1.398437 6.46875-5.9375 5.070312-10.132813l-9.746093-29.257812 9.976562-9.976562 7.199219 21.664062c1.089844 3.269531 4.148438 5.476562 7.59375 5.472656.859375.003906 1.714844-.136718 2.527344-.414062 4.195312-1.394532 6.460937-5.925782 5.066406-10.121094l-9.753906-29.246094 15.640625-15.640625 7.199219 21.664063c1.398437 4.195312 5.929687 6.46875 10.128906 5.070312 4.195312-1.394531 6.46875-5.929687 5.070312-10.128906l-9.742187-29.253906 23.945312-23.960938c6.109375 12.550782 7.085938 26.988282 2.726563 40.25zm0 0" fill="#231f20"/><path d="m272.003906 228.011719c2.121094-.003907 4.15625-.84375 5.65625-2.34375l42.824219-42.824219c9.730469 6.589844 21.277344 9.96875 33.023437 9.664062 7.699219-.070312 15.359376-1.097656 22.800782-3.066406 26.980468-7.8125 51.433594-22.585937 70.898437-42.839844 44-44.007812 44.796875-134.726562 44.796875-138.589843.007813-2.132813-.835937-4.175781-2.34375-5.679688-1.527344-1.457031-3.546875-2.285156-5.65625-2.3203122-3.839844 0-94.558594.7968752-138.566406 44.7968752-20.257812 19.472656-35.035156 43.9375-42.839844 70.929687-5.710937 22.34375-3.335937 41.816407 6.582032 55.839844l-42.804688 42.808594c-2.261719 2.289062-2.933594 5.707031-1.707031 8.679687 1.230469 2.972656 4.121093 4.921875 7.335937 4.945313zm163.921875-92.722657c-17.445312 18.230469-39.371093 31.558594-63.585937 38.648438-13.25 4.378906-27.691406 3.40625-40.238282-2.703125l23.953126-23.960937 29.253906 9.746093c.8125.277344 1.667968.417969 2.527344.414063 3.925781.003906 7.277343-2.84375 7.902343-6.71875.628907-3.875-1.648437-7.636719-5.375-8.871094l-21.664062-7.203125 15.640625-15.636719 29.265625 9.734375c4.195312 1.398438 8.734375-.871093 10.132812-5.066406 1.398438-4.199219-.871093-8.734375-5.070312-10.132813l-21.664063-7.199218 9.976563-9.976563 29.257812 9.742188c4.195313 1.398437 8.730469-.871094 10.128907-5.066407 1.398437-4.199218-.867188-8.734374-5.066407-10.132812l-21.664062-7.199219 55.144531-55.144531c-2.710938 28.382812-11.3125 79.175781-38.855469 106.726562zm-117.847656-15.613281c7.089844-24.214843 20.417969-46.144531 38.648437-63.585937 27.503907-27.496094 78.308594-36.078125 106.710938-38.824219l-55.128906 55.128906-7.199219-21.664062c-1.398437-4.199219-5.933594-6.464844-10.132813-5.070313-4.195312 1.398438-6.464843 5.9375-5.066406 10.132813l9.742188 29.257812-9.976563 9.976563-7.199219-21.664063c-1.398437-4.199219-5.933593-6.46875-10.132812-5.070312-4.195312 1.398437-6.464844 5.9375-5.066406 10.132812l9.75 29.25-15.636719 15.636719-7.203125-21.664062c-1.394531-4.195313-5.929688-6.464844-10.125-5.070313-4.199219 1.394531-6.46875 5.929687-5.074219 10.128906l9.746094 29.253907-23.960937 24c-6.113282-12.566407-7.078126-27.019532-2.695313-40.285157zm0 0" fill="#231f20"/><path d="m245.660156 234.355469c-3.136718-3.03125-8.128906-2.988281-11.214844.097656-3.085937 3.085937-3.128906 8.074219-.097656 11.214844l8 8c3.140625 3.03125 8.128906 2.988281 11.214844-.097657 3.085938-3.085937 3.128906-8.078124.097656-11.214843zm0 0" fill="#231f20"/></svg>