<svg height="496pt" viewBox="0 -44 496.005 496" width="496pt" xmlns="http://www.w3.org/2000/svg"><path d="m424.003906 320.003906-176-224-176 224v80h352zm0 0" fill="#4e901e"/><path d="m384.003906 400.003906h-272v-40c59.753906-45.957031 106.605469-106.585937 136-176 22.679688 73.488282 70.503906 128.359375 136 176zm0 0" fill="#00665a"/><path d="m456.003906 88.003906c0 26.507813-21.492187 48-48 48-26.511718 0-48-21.492187-48-48 0-26.511718 21.488282-48 48-48 26.507813 0 48 21.488282 48 48zm0 0" fill="#fff200"/><g fill="#231f20"><path d="m254.28125 91.042969c-1.574219-1.828125-3.867188-2.878907-6.277344-2.878907-2.414062 0-4.707031 1.050782-6.28125 2.878907l-240 304c-2.738281 3.46875-2.148437 8.5 1.320313 11.238281 3.46875 2.742188 8.5 2.148438 11.238281-1.320312l49.722656-62.984376v58.027344c0 4.417969 3.582032 8 8 8h352c4.417969 0 8-3.582031 8-8v-58.027344l49.71875 62.984376c2.738282 3.46875 7.773438 4.0625 11.238282 1.320312 3.46875-2.738281 4.0625-7.769531 1.320312-11.238281zm-134.277344 300.960937v-28.121094c53.886719-42.324218 97.339844-96.453124 127.015625-158.214843 22.976563 59.933593 64.4375 110.765625 128.984375 158.390625v27.945312zm296 0h-24v-32c0-2.5625-1.226562-4.96875-3.296875-6.472656-70.402343-51.199219-112.671875-105.816406-133.054687-171.890625-.992188-3.210937-3.886719-5.464844-7.242188-5.636719-3.359375-.167968-6.46875 1.78125-7.777344 4.878906-28.945312 68.109376-74.941406 127.621094-133.558593 172.800782-1.945313 1.519531-3.078125 3.851562-3.070313 6.320312v32h-24v-69.234375l168-213.816406 168 213.816406zm0 0"/><path d="m408.003906 144.003906c30.925782 0 56-25.074218 56-56 0-30.929687-25.074218-56-56-56-30.929687 0-56 25.070313-56 56 .035156 30.910156 25.085938 55.964844 56 56zm0-96c22.089844 0 40 17.90625 40 40 0 22.089844-17.910156 40-40 40-22.09375 0-40-17.910156-40-40 .023438-22.082031 17.917969-39.976562 40-40zm0 0"/><path d="m408.003906 24.003906c4.417969 0 8-3.582031 8-8v-8c0-4.417968-3.582031-7.99999975-8-7.99999975-4.417968 0-8 3.58203175-8 7.99999975v8c0 4.417969 3.582032 8 8 8zm0 0"/><path d="m400.003906 160.003906v8c0 4.417969 3.582032 8 8 8 4.417969 0 8-3.582031 8-8v-8c0-4.417968-3.582031-8-8-8-4.417968 0-8 3.582032-8 8zm0 0"/><path d="m480.003906 96.003906h8c4.417969 0 8-3.582031 8-8 0-4.417968-3.582031-8-8-8h-8c-4.417968 0-8 3.582032-8 8 0 4.417969 3.582032 8 8 8zm0 0"/><path d="m328.003906 96.003906h8c4.417969 0 8-3.582031 8-8 0-4.417968-3.582031-8-8-8h-8c-4.417968 0-8 3.582032-8 8 0 4.417969 3.582032 8 8 8zm0 0"/><path d="m458.914062 45.089844c2.121094 0 4.15625-.84375 5.65625-2.34375l5.65625-5.65625c2.078126-2.007813 2.914063-4.980469 2.179688-7.78125-.730469-2.796875-2.914062-4.980469-5.710938-5.710938-2.796874-.734375-5.773437.101563-7.78125 2.179688l-5.65625 5.65625c-2.285156 2.289062-2.96875 5.730468-1.734374 8.71875 1.238281 2.988281 4.15625 4.9375 7.390624 4.9375zm0 0"/><path d="m351.433594 133.257812-5.65625 5.65625c-2.078125 2.007813-2.914063 4.984376-2.179688 7.78125.730469 2.796876 2.914063 4.980469 5.710938 5.710938 2.800781.734375 5.773437-.101562 7.78125-2.179688l5.65625-5.65625c3.03125-3.140624 2.988281-8.128906-.097656-11.214843-3.085938-3.085938-8.074219-3.128907-11.214844-.097657zm0 0"/><path d="m464.570312 133.257812c-3.140624-3.03125-8.128906-2.988281-11.214843.097657-3.085938 3.085937-3.128907 8.074219-.097657 11.214843l5.65625 5.65625c3.140626 3.03125 8.128907 2.988282 11.214844-.097656 3.085938-3.085937 3.128906-8.074218.097656-11.214844zm0 0"/><path d="m351.433594 42.746094c3.140625 3.03125 8.128906 2.988281 11.214844-.097656 3.085937-3.085938 3.128906-8.074219.097656-11.214844l-5.65625-5.65625c-3.136719-3.03125-8.128906-2.988282-11.214844.097656s-3.128906 8.078125-.097656 11.214844zm0 0"/><path d="m8.003906 368.003906c4.417969 0 8-3.582031 8-8v-24c0-4.417968-3.582031-8-8-8-4.417968 0-7.99999975 3.582032-7.99999975 8v24c0 4.417969 3.58203175 8 7.99999975 8zm0 0"/><path d="m8.003906 320.003906c.535156-.015625 1.070313-.070312 1.597656-.160156.503907-.089844.988282-.25 1.441407-.480469.492187-.160156.953125-.402343 1.359375-.722656.480468-.316406.878906-.636719 1.28125-.957031.398437-.320313.640625-.800782.957031-1.28125.320313-.40625.5625-.867188.722656-1.359375.230469-.453125.390625-.9375.480469-1.441407.089844-.527343.144531-1.0625.160156-1.597656-.03125-2.121094-.859375-4.148437-2.320312-5.679687-3.210938-2.960938-8.152344-2.960938-11.359375 0-3.09375 3.152343-3.09375 8.203125 0 11.359375 1.53125 1.460937 3.558593 2.289062 5.679687 2.320312zm0 0"/></g></svg>